<svg xmlns="http://www.w3.org/2000/svg" xmlns:xlink="http://www.w3.org/1999/xlink" zoomAndPan="magnify" preserveAspectRatio="xMidYMid meet" version="1.0" viewBox="187.42 180.8 162.06 36.84"><defs><g/></defs><g fill="#68696e" fill-opacity="1"><g transform="translate(184.264237, 204.909519)"><g><path d="M 7.859375 0.109375 C 7.296875 0.0351562 6.203125 0 4.578125 0 L 3.15625 0 L 3.15625 -23.734375 C 3.90625 -23.679688 4.738281 -23.65625 5.65625 -23.65625 C 6.570312 -23.65625 7.21875 -23.707031 7.59375 -23.8125 L 13.578125 -13.640625 L 19.328125 -23.8125 C 19.703125 -23.707031 20.421875 -23.65625 21.484375 -23.65625 C 22.554688 -23.65625 23.472656 -23.679688 24.234375 -23.734375 L 24.234375 0 L 22.8125 0 C 21.1875 0 20.085938 0.0351562 19.515625 0.109375 L 19.515625 -15.828125 L 13.703125 -5.421875 L 7.859375 -15 Z M 7.859375 0.109375 "/></g></g></g><g fill="#68696e" fill-opacity="1"><g transform="translate(213.646884, 204.909519)"><g><path d="M 14.890625 -1.109375 C 13.203125 -0.191406 11.675781 0.265625 10.3125 0.265625 C 8.945312 0.265625 7.78125 0.140625 6.8125 -0.109375 C 5.84375 -0.367188 5.019531 -0.75 4.34375 -1.25 C 2.96875 -2.25 2.28125 -3.707031 2.28125 -5.625 C 2.28125 -7.332031 3.117188 -8.753906 4.796875 -9.890625 C 6.628906 -11.128906 9.109375 -11.75 12.234375 -11.75 L 12.953125 -11.71875 C 13.097656 -11.707031 13.257812 -11.695312 13.4375 -11.6875 C 13.613281 -11.6875 13.769531 -11.675781 13.90625 -11.65625 C 13.8125 -13.550781 12.992188 -14.660156 11.453125 -14.984375 C 10.941406 -15.085938 10.398438 -15.140625 9.828125 -15.140625 C 9.253906 -15.140625 8.691406 -15.085938 8.140625 -14.984375 C 7.585938 -14.890625 7.050781 -14.757812 6.53125 -14.59375 C 5.375 -14.21875 4.550781 -13.796875 4.0625 -13.328125 L 4 -13.359375 L 3.46875 -17.296875 C 5.570312 -18.398438 7.867188 -18.953125 10.359375 -18.953125 C 14.222656 -18.953125 16.695312 -17.554688 17.78125 -14.765625 C 18.125 -13.878906 18.296875 -12.878906 18.296875 -11.765625 L 18.296875 -5.3125 C 18.296875 -3.9375 18.78125 -3.003906 19.75 -2.515625 L 16.53125 0.4375 C 15.851562 0.0820312 15.304688 -0.429688 14.890625 -1.109375 Z M 13.9375 -8.453125 C 13.613281 -8.515625 13.28125 -8.546875 12.9375 -8.546875 L 12.21875 -8.546875 C 9.601562 -8.546875 7.9375 -7.960938 7.21875 -6.796875 C 7.007812 -6.453125 6.90625 -6.085938 6.90625 -5.703125 C 6.90625 -5.328125 6.972656 -4.992188 7.109375 -4.703125 C 7.242188 -4.410156 7.472656 -4.171875 7.796875 -3.984375 C 8.410156 -3.628906 9.320312 -3.453125 10.53125 -3.453125 C 11.75 -3.453125 12.890625 -3.742188 13.953125 -4.328125 C 13.941406 -4.453125 13.9375 -4.585938 13.9375 -4.734375 Z M 13.9375 -8.453125 "/></g></g></g><g fill="#68696e" fill-opacity="1"><g transform="translate(236.874245, 204.909519)"><g><path d="M 7.296875 -2.28125 C 7.296875 -1.238281 7.34375 -0.476562 7.4375 0 L 2.96875 0 L 2.96875 -18.59375 L 7.296875 -18.59375 L 7.296875 -17.015625 C 8.859375 -18.304688 10.53125 -18.953125 12.3125 -18.953125 C 14.257812 -18.953125 15.8125 -18.289062 16.96875 -16.96875 C 18.132812 -15.644531 18.71875 -13.90625 18.71875 -11.75 L 18.71875 -4.65625 C 18.71875 -2.65625 18.742188 -1.453125 18.796875 -1.046875 C 18.859375 -0.640625 18.941406 -0.378906 19.046875 -0.265625 C 19.148438 -0.148438 19.234375 -0.046875 19.296875 0.046875 L 19.265625 0.125 C 18.304688 0.0390625 17.609375 0 17.171875 0 L 15.921875 0 C 15.546875 0 15.035156 0.015625 14.390625 0.046875 L 14.390625 -9.640625 C 14.390625 -13.117188 13.335938 -14.859375 11.234375 -14.859375 C 9.660156 -14.859375 8.347656 -14.050781 7.296875 -12.4375 Z M 7.296875 -2.28125 "/></g></g></g><g fill="#68696e" fill-opacity="1"><g transform="translate(260.172766, 204.909519)"><g><path d="M 7.515625 -4.953125 C 7.078125 -4.367188 6.859375 -3.90625 6.859375 -3.5625 C 6.859375 -3.226562 6.910156 -2.96875 7.015625 -2.78125 C 7.117188 -2.601562 7.347656 -2.429688 7.703125 -2.265625 C 8.484375 -1.890625 9.769531 -1.5625 11.5625 -1.28125 C 13.351562 -1.007812 14.753906 -0.664062 15.765625 -0.25 C 16.785156 0.164062 17.609375 0.675781 18.234375 1.28125 C 19.410156 2.425781 20 4.054688 20 6.171875 C 20 8.285156 19.253906 9.90625 17.765625 11.03125 C 16.285156 12.164062 14.085938 12.734375 11.171875 12.734375 C 8.234375 12.734375 5.863281 12.09375 4.0625 10.8125 C 2.257812 9.53125 1.332031 7.832031 1.28125 5.71875 C 1.207031 3.25 2.175781 1.460938 4.1875 0.359375 C 3.632812 -0.0859375 3.265625 -0.617188 3.078125 -1.234375 C 2.898438 -1.847656 2.8125 -2.546875 2.8125 -3.328125 C 2.8125 -4.640625 3.390625 -5.753906 4.546875 -6.671875 C 3.203125 -7.941406 2.53125 -9.519531 2.53125 -11.40625 C 2.53125 -13.519531 3.289062 -15.285156 4.8125 -16.703125 C 6.40625 -18.203125 8.476562 -18.953125 11.03125 -18.953125 C 12.375 -18.953125 13.632812 -18.703125 14.8125 -18.203125 C 16.351562 -18.847656 17.484375 -19.414062 18.203125 -19.90625 C 18.921875 -20.40625 19.382812 -20.769531 19.59375 -21 L 19.703125 -20.96875 C 19.804688 -20.6875 19.929688 -20.285156 20.078125 -19.765625 L 20.390625 -18.484375 C 20.671875 -17.429688 20.84375 -16.707031 20.90625 -16.3125 C 20.382812 -15.75 19.46875 -15.347656 18.15625 -15.109375 C 18.664062 -14.117188 18.921875 -13.070312 18.921875 -11.96875 C 18.921875 -10.863281 18.726562 -9.863281 18.34375 -8.96875 C 17.96875 -8.070312 17.429688 -7.289062 16.734375 -6.625 C 15.171875 -5.164062 13.1875 -4.4375 10.78125 -4.4375 C 9.601562 -4.4375 8.515625 -4.609375 7.515625 -4.953125 Z M 7.046875 -12.953125 C 6.878906 -12.523438 6.796875 -12.09375 6.796875 -11.65625 C 6.796875 -11.21875 6.882812 -10.796875 7.0625 -10.390625 C 7.25 -9.984375 7.523438 -9.625 7.890625 -9.3125 C 8.679688 -8.59375 9.71875 -8.234375 11 -8.234375 C 11.96875 -8.234375 12.8125 -8.5625 13.53125 -9.21875 C 14.269531 -9.925781 14.640625 -10.78125 14.640625 -11.78125 C 14.640625 -12.789062 14.300781 -13.601562 13.625 -14.21875 C 12.945312 -14.832031 12.019531 -15.140625 10.84375 -15.140625 C 8.882812 -15.140625 7.617188 -14.410156 7.046875 -12.953125 Z M 11.40625 8.96875 C 14.320312 8.96875 15.78125 7.945312 15.78125 5.90625 C 15.78125 4.9375 15.304688 4.15625 14.359375 3.5625 C 13.296875 2.882812 11.460938 2.351562 8.859375 1.96875 L 7.9375 1.8125 C 7.15625 2.226562 6.578125 2.757812 6.203125 3.40625 C 5.835938 4.0625 5.65625 4.679688 5.65625 5.265625 C 5.664062 5.859375 5.804688 6.367188 6.078125 6.796875 C 6.359375 7.222656 6.738281 7.597656 7.21875 7.921875 C 8.300781 8.617188 9.695312 8.96875 11.40625 8.96875 Z M 11.40625 8.96875 "/></g></g></g><g fill="#68696e" fill-opacity="1"><g transform="translate(283.400128, 204.909519)"><g><path d="M 14.890625 -1.109375 C 13.203125 -0.191406 11.675781 0.265625 10.3125 0.265625 C 8.945312 0.265625 7.78125 0.140625 6.8125 -0.109375 C 5.84375 -0.367188 5.019531 -0.75 4.34375 -1.25 C 2.96875 -2.25 2.28125 -3.707031 2.28125 -5.625 C 2.28125 -7.332031 3.117188 -8.753906 4.796875 -9.890625 C 6.628906 -11.128906 9.109375 -11.75 12.234375 -11.75 L 12.953125 -11.71875 C 13.097656 -11.707031 13.257812 -11.695312 13.4375 -11.6875 C 13.613281 -11.6875 13.769531 -11.675781 13.90625 -11.65625 C 13.8125 -13.550781 12.992188 -14.660156 11.453125 -14.984375 C 10.941406 -15.085938 10.398438 -15.140625 9.828125 -15.140625 C 9.253906 -15.140625 8.691406 -15.085938 8.140625 -14.984375 C 7.585938 -14.890625 7.050781 -14.757812 6.53125 -14.59375 C 5.375 -14.21875 4.550781 -13.796875 4.0625 -13.328125 L 4 -13.359375 L 3.46875 -17.296875 C 5.570312 -18.398438 7.867188 -18.953125 10.359375 -18.953125 C 14.222656 -18.953125 16.695312 -17.554688 17.78125 -14.765625 C 18.125 -13.878906 18.296875 -12.878906 18.296875 -11.765625 L 18.296875 -5.3125 C 18.296875 -3.9375 18.78125 -3.003906 19.75 -2.515625 L 16.53125 0.4375 C 15.851562 0.0820312 15.304688 -0.429688 14.890625 -1.109375 Z M 13.9375 -8.453125 C 13.613281 -8.515625 13.28125 -8.546875 12.9375 -8.546875 L 12.21875 -8.546875 C 9.601562 -8.546875 7.9375 -7.960938 7.21875 -6.796875 C 7.007812 -6.453125 6.90625 -6.085938 6.90625 -5.703125 C 6.90625 -5.328125 6.972656 -4.992188 7.109375 -4.703125 C 7.242188 -4.410156 7.472656 -4.171875 7.796875 -3.984375 C 8.410156 -3.628906 9.320312 -3.453125 10.53125 -3.453125 C 11.75 -3.453125 12.890625 -3.742188 13.953125 -4.328125 C 13.941406 -4.453125 13.9375 -4.585938 13.9375 -4.734375 Z M 13.9375 -8.453125 "/></g></g></g><g fill="#68696e" fill-opacity="1"><g transform="translate(306.62749, 204.909519)"><g><path d="M 13.671875 -24.109375 C 15.878906 -24.109375 17.769531 -23.722656 19.34375 -22.953125 L 19.34375 -17.5 L 19.296875 -17.46875 C 18.640625 -18.488281 17.242188 -19.164062 15.109375 -19.5 C 14.472656 -19.601562 13.675781 -19.65625 12.71875 -19.65625 C 11.757812 -19.65625 10.816406 -19.472656 9.890625 -19.109375 C 8.960938 -18.753906 8.203125 -18.242188 7.609375 -17.578125 C 6.460938 -16.285156 5.890625 -14.441406 5.890625 -12.046875 C 5.890625 -9.253906 6.617188 -7.175781 8.078125 -5.8125 C 9.285156 -4.675781 10.882812 -4.109375 12.875 -4.109375 C 15.132812 -4.109375 16.960938 -4.585938 18.359375 -5.546875 C 18.867188 -5.890625 19.300781 -6.316406 19.65625 -6.828125 L 19.71875 -6.796875 L 19.71875 -1.8125 C 17.894531 -0.3125 15.453125 0.4375 12.390625 0.4375 C 8.765625 0.4375 5.925781 -0.707031 3.875 -3 C 1.90625 -5.195312 0.921875 -8.101562 0.921875 -11.71875 C 0.921875 -15.550781 2 -18.570312 4.15625 -20.78125 C 6.34375 -23 9.515625 -24.109375 13.671875 -24.109375 Z M 13.671875 -24.109375 "/></g></g></g><g fill="#68696e" fill-opacity="1"><g transform="translate(329.765897, 204.909519)"><g><path d="M 13.671875 -24.109375 C 15.878906 -24.109375 17.769531 -23.722656 19.34375 -22.953125 L 19.34375 -17.5 L 19.296875 -17.46875 C 18.640625 -18.488281 17.242188 -19.164062 15.109375 -19.5 C 14.472656 -19.601562 13.675781 -19.65625 12.71875 -19.65625 C 11.757812 -19.65625 10.816406 -19.472656 9.890625 -19.109375 C 8.960938 -18.753906 8.203125 -18.242188 7.609375 -17.578125 C 6.460938 -16.285156 5.890625 -14.441406 5.890625 -12.046875 C 5.890625 -9.253906 6.617188 -7.175781 8.078125 -5.8125 C 9.285156 -4.675781 10.882812 -4.109375 12.875 -4.109375 C 15.132812 -4.109375 16.960938 -4.585938 18.359375 -5.546875 C 18.867188 -5.890625 19.300781 -6.316406 19.65625 -6.828125 L 19.71875 -6.796875 L 19.71875 -1.8125 C 17.894531 -0.3125 15.453125 0.4375 12.390625 0.4375 C 8.765625 0.4375 5.925781 -0.707031 3.875 -3 C 1.90625 -5.195312 0.921875 -8.101562 0.921875 -11.71875 C 0.921875 -15.550781 2 -18.570312 4.15625 -20.78125 C 6.34375 -23 9.515625 -24.109375 13.671875 -24.109375 Z M 13.671875 -24.109375 "/></g></g></g></svg>