<svg xmlns="http://www.w3.org/2000/svg" xmlns:xlink="http://www.w3.org/1999/xlink" zoomAndPan="magnify" preserveAspectRatio="xMidYMid meet" version="1.0" viewBox="129.11 206.6 343.71 49.41"><defs><g/></defs><g fill="#004aad" fill-opacity="1"><g transform="translate(126.893783, 224.945138)"><g><path d="M 17.25 -18.34375 C 17.570312 -18.34375 17.816406 -18.238281 17.984375 -18.03125 C 18.160156 -17.832031 18.25 -17.578125 18.25 -17.265625 C 18.25 -16.929688 18.148438 -16.625 17.953125 -16.34375 C 17.765625 -16.070312 17.515625 -15.84375 17.203125 -15.65625 C 16.410156 -15.15625 15.226562 -14.90625 13.65625 -14.90625 C 12.988281 -14.90625 12.222656 -14.957031 11.359375 -15.0625 L 8.03125 -2.609375 C 7.90625 -2.140625 7.84375 -1.753906 7.84375 -1.453125 C 7.84375 -1.078125 7.976562 -0.816406 8.25 -0.671875 C 8.53125 -0.535156 9.019531 -0.460938 9.71875 -0.453125 L 9.625 0 C 8.851562 -0.0390625 7.738281 -0.0625 6.28125 -0.0625 C 4.820312 -0.0625 3.734375 -0.0390625 3.015625 0 L 3.09375 -0.453125 C 3.726562 -0.484375 4.21875 -0.5625 4.5625 -0.6875 C 4.914062 -0.8125 5.191406 -1.019531 5.390625 -1.3125 C 5.585938 -1.601562 5.773438 -2.035156 5.953125 -2.609375 L 9.34375 -15.328125 C 8.125 -15.492188 7.15625 -15.578125 6.4375 -15.578125 C 5.132812 -15.578125 4.296875 -15.453125 3.921875 -15.203125 C 4.046875 -15.035156 4.144531 -14.832031 4.21875 -14.59375 C 4.289062 -14.351562 4.328125 -14.125 4.328125 -13.90625 C 4.328125 -13.550781 4.226562 -13.242188 4.03125 -12.984375 C 3.84375 -12.722656 3.566406 -12.59375 3.203125 -12.59375 C 2.890625 -12.59375 2.644531 -12.691406 2.46875 -12.890625 C 2.300781 -13.097656 2.21875 -13.375 2.21875 -13.71875 C 2.21875 -14.5 2.613281 -15.082031 3.40625 -15.46875 C 4.113281 -15.8125 5.117188 -15.984375 6.421875 -15.984375 C 7.015625 -15.984375 7.582031 -15.957031 8.125 -15.90625 C 8.664062 -15.851562 9.347656 -15.773438 10.171875 -15.671875 C 10.953125 -15.566406 11.609375 -15.488281 12.140625 -15.4375 C 12.671875 -15.382812 13.226562 -15.359375 13.8125 -15.359375 C 14.476562 -15.359375 15.035156 -15.394531 15.484375 -15.46875 C 15.941406 -15.539062 16.347656 -15.671875 16.703125 -15.859375 C 16.328125 -16.222656 16.140625 -16.640625 16.140625 -17.109375 C 16.140625 -17.441406 16.234375 -17.726562 16.421875 -17.96875 C 16.609375 -18.21875 16.882812 -18.34375 17.25 -18.34375 Z M 17.25 -18.34375 "/></g></g></g><g fill="#004aad" fill-opacity="1"><g transform="translate(142.805181, 224.945138)"><g><path d="M 8.875 -11.859375 C 9.269531 -11.859375 9.585938 -11.738281 9.828125 -11.5 C 10.066406 -11.257812 10.1875 -10.953125 10.1875 -10.578125 C 10.1875 -10.128906 10.03125 -9.742188 9.71875 -9.421875 C 9.40625 -9.109375 9.039062 -8.953125 8.625 -8.953125 C 8.351562 -8.953125 8.132812 -9.023438 7.96875 -9.171875 C 7.800781 -9.316406 7.71875 -9.515625 7.71875 -9.765625 C 7.71875 -10.109375 7.804688 -10.398438 7.984375 -10.640625 C 8.171875 -10.878906 8.421875 -11.066406 8.734375 -11.203125 C 8.671875 -11.265625 8.585938 -11.296875 8.484375 -11.296875 C 7.679688 -11.296875 6.800781 -10.421875 5.84375 -8.671875 C 4.894531 -6.929688 4.003906 -4.632812 3.171875 -1.78125 L 2.71875 0 L 0.765625 0 L 3.453125 -9.625 C 3.554688 -9.957031 3.609375 -10.253906 3.609375 -10.515625 C 3.609375 -10.859375 3.453125 -11.03125 3.140625 -11.03125 C 2.816406 -11.03125 2.515625 -10.851562 2.234375 -10.5 C 1.953125 -10.144531 1.671875 -9.554688 1.390625 -8.734375 L 1.09375 -7.90625 L 0.671875 -7.90625 L 1.234375 -9.546875 C 1.773438 -11.085938 2.679688 -11.859375 3.953125 -11.859375 C 4.804688 -11.859375 5.234375 -11.421875 5.234375 -10.546875 C 5.234375 -10.128906 5.128906 -9.519531 4.921875 -8.71875 L 4.203125 -5.875 C 5.003906 -8.050781 5.757812 -9.59375 6.46875 -10.5 C 7.1875 -11.40625 7.988281 -11.859375 8.875 -11.859375 Z M 8.875 -11.859375 "/></g></g></g><g fill="#004aad" fill-opacity="1"><g transform="translate(153.487752, 224.945138)"><g><path d="M 10.21875 -3.65625 L 10.640625 -3.65625 L 10.078125 -2.015625 C 9.773438 -1.191406 9.390625 -0.597656 8.921875 -0.234375 C 8.460938 0.128906 7.988281 0.3125 7.5 0.3125 C 7.21875 0.3125 6.96875 0.257812 6.75 0.15625 C 6.539062 0.0507812 6.378906 -0.0859375 6.265625 -0.265625 C 6.128906 -0.492188 6.0625 -0.757812 6.0625 -1.0625 C 6.0625 -1.375 6.113281 -1.722656 6.21875 -2.109375 C 6.320312 -2.492188 6.390625 -2.738281 6.421875 -2.84375 L 6.828125 -4.46875 C 6.109375 -2.789062 5.378906 -1.570312 4.640625 -0.8125 C 3.898438 -0.0625 3.125 0.3125 2.3125 0.3125 C 1.625 0.3125 1.097656 0.0664062 0.734375 -0.421875 C 0.378906 -0.921875 0.203125 -1.582031 0.203125 -2.40625 C 0.203125 -3.613281 0.523438 -4.96875 1.171875 -6.46875 C 1.816406 -7.96875 2.65625 -9.238281 3.6875 -10.28125 C 4.71875 -11.332031 5.765625 -11.859375 6.828125 -11.859375 C 7.234375 -11.859375 7.5625 -11.707031 7.8125 -11.40625 C 8.070312 -11.101562 8.222656 -10.6875 8.265625 -10.15625 L 8.625 -11.546875 C 9.445312 -11.566406 10.132812 -11.671875 10.6875 -11.859375 L 7.875 -1.9375 C 7.863281 -1.875 7.832031 -1.753906 7.78125 -1.578125 C 7.738281 -1.410156 7.71875 -1.25 7.71875 -1.09375 C 7.71875 -0.71875 7.882812 -0.53125 8.21875 -0.53125 C 8.875 -0.53125 9.453125 -1.296875 9.953125 -2.828125 Z M 2.96875 -0.40625 C 3.382812 -0.40625 3.882812 -0.722656 4.46875 -1.359375 C 5.050781 -2.003906 5.625 -2.863281 6.1875 -3.9375 C 6.75 -5.007812 7.207031 -6.148438 7.5625 -7.359375 L 7.96875 -8.953125 C 7.988281 -9.078125 8 -9.242188 8 -9.453125 C 8 -10.066406 7.890625 -10.546875 7.671875 -10.890625 C 7.453125 -11.242188 7.148438 -11.421875 6.765625 -11.421875 C 6.117188 -11.421875 5.4375 -10.921875 4.71875 -9.921875 C 4 -8.929688 3.394531 -7.707031 2.90625 -6.25 C 2.414062 -4.789062 2.171875 -3.421875 2.171875 -2.140625 C 2.171875 -1.523438 2.238281 -1.082031 2.375 -0.8125 C 2.507812 -0.539062 2.707031 -0.40625 2.96875 -0.40625 Z M 2.96875 -0.40625 "/></g></g></g><g fill="#004aad" fill-opacity="1"><g transform="translate(166.347125, 224.945138)"><g><path d="M 11.90625 -3.640625 L 11.34375 -2 C 10.800781 -0.457031 9.894531 0.3125 8.625 0.3125 C 7.945312 0.3125 7.472656 0.09375 7.203125 -0.34375 C 7.085938 -0.519531 7.03125 -0.765625 7.03125 -1.078125 C 7.03125 -1.484375 7.15625 -2.066406 7.40625 -2.828125 L 9.546875 -9.25 C 9.691406 -9.738281 9.765625 -10.101562 9.765625 -10.34375 C 9.765625 -10.875 9.523438 -11.140625 9.046875 -11.140625 C 8.484375 -11.140625 7.835938 -10.722656 7.109375 -9.890625 C 6.378906 -9.054688 5.660156 -7.910156 4.953125 -6.453125 C 4.253906 -5.003906 3.648438 -3.398438 3.140625 -1.640625 L 2.734375 0 L 0.78125 0 L 3.484375 -9.625 C 3.585938 -10.019531 3.640625 -10.300781 3.640625 -10.46875 C 3.640625 -10.84375 3.472656 -11.03125 3.140625 -11.03125 C 2.816406 -11.03125 2.523438 -10.863281 2.265625 -10.53125 C 2.015625 -10.195312 1.734375 -9.597656 1.421875 -8.734375 L 1.125 -7.90625 L 0.703125 -7.90625 L 1.25 -9.546875 C 1.789062 -11.085938 2.679688 -11.859375 3.921875 -11.859375 C 4.398438 -11.859375 4.738281 -11.738281 4.9375 -11.5 C 5.144531 -11.269531 5.25 -10.945312 5.25 -10.53125 C 5.25 -10.125 5.144531 -9.519531 4.9375 -8.71875 L 4.15625 -5.640625 C 5.113281 -7.898438 6.03125 -9.5 6.90625 -10.4375 C 7.78125 -11.382812 8.742188 -11.859375 9.796875 -11.859375 C 11.003906 -11.859375 11.609375 -11.296875 11.609375 -10.171875 C 11.609375 -9.679688 11.492188 -9.113281 11.265625 -8.46875 L 9.09375 -1.90625 C 8.96875 -1.550781 8.90625 -1.269531 8.90625 -1.0625 C 8.90625 -0.695312 9.085938 -0.515625 9.453125 -0.515625 C 9.753906 -0.515625 10.039062 -0.679688 10.3125 -1.015625 C 10.59375 -1.359375 10.882812 -1.957031 11.1875 -2.8125 L 11.46875 -3.640625 Z M 11.90625 -3.640625 "/></g></g></g><g fill="#004aad" fill-opacity="1"><g transform="translate(180.485665, 224.945138)"><g><path d="M 1.328125 -0.34375 C 1.472656 -0.257812 1.613281 -0.203125 1.75 -0.171875 C 1.894531 -0.148438 2.097656 -0.140625 2.359375 -0.140625 C 3.035156 -0.140625 3.582031 -0.335938 4 -0.734375 C 4.414062 -1.140625 4.625 -1.710938 4.625 -2.453125 C 4.625 -2.929688 4.535156 -3.394531 4.359375 -3.84375 C 4.179688 -4.300781 3.878906 -4.820312 3.453125 -5.40625 C 2.941406 -6.09375 2.570312 -6.65625 2.34375 -7.09375 C 2.113281 -7.539062 2 -8.066406 2 -8.671875 C 2 -9.285156 2.15625 -9.832031 2.46875 -10.3125 C 2.78125 -10.800781 3.203125 -11.179688 3.734375 -11.453125 C 4.265625 -11.722656 4.847656 -11.859375 5.484375 -11.859375 C 6.253906 -11.859375 6.898438 -11.710938 7.421875 -11.421875 C 7.953125 -11.128906 8.21875 -10.625 8.21875 -9.90625 C 8.21875 -9.632812 8.128906 -9.367188 7.953125 -9.109375 C 7.785156 -8.859375 7.53125 -8.734375 7.1875 -8.734375 C 6.925781 -8.734375 6.707031 -8.820312 6.53125 -9 C 6.363281 -9.175781 6.28125 -9.398438 6.28125 -9.671875 C 6.28125 -10.148438 6.492188 -10.65625 6.921875 -11.1875 C 6.628906 -11.363281 6.253906 -11.453125 5.796875 -11.453125 C 5.222656 -11.453125 4.753906 -11.257812 4.390625 -10.875 C 4.023438 -10.5 3.84375 -9.976562 3.84375 -9.3125 C 3.84375 -8.925781 3.910156 -8.59375 4.046875 -8.3125 C 4.179688 -8.039062 4.425781 -7.632812 4.78125 -7.09375 L 5.1875 -6.515625 C 5.632812 -5.828125 5.96875 -5.234375 6.1875 -4.734375 C 6.40625 -4.242188 6.515625 -3.734375 6.515625 -3.203125 C 6.515625 -2.535156 6.335938 -1.929688 5.984375 -1.390625 C 5.628906 -0.847656 5.15625 -0.425781 4.5625 -0.125 C 3.976562 0.164062 3.34375 0.3125 2.65625 0.3125 C 1.800781 0.3125 1.082031 0.128906 0.5 -0.234375 C -0.0820312 -0.597656 -0.375 -1.15625 -0.375 -1.90625 C -0.375 -2.164062 -0.300781 -2.398438 -0.15625 -2.609375 C -0.0195312 -2.816406 0.195312 -2.921875 0.5 -2.921875 C 0.820312 -2.921875 1.066406 -2.785156 1.234375 -2.515625 C 1.398438 -2.242188 1.484375 -1.90625 1.484375 -1.5 C 1.484375 -1.25 1.429688 -0.863281 1.328125 -0.34375 Z M 1.328125 -0.34375 "/></g></g></g><g fill="#004aad" fill-opacity="1"><g transform="translate(190.158376, 224.945138)"><g><path d="M 8.75 -17.5625 C 9.414062 -17.5625 9.9375 -17.410156 10.3125 -17.109375 C 10.695312 -16.804688 10.890625 -16.425781 10.890625 -15.96875 C 10.890625 -15.570312 10.742188 -15.210938 10.453125 -14.890625 C 10.160156 -14.578125 9.804688 -14.421875 9.390625 -14.421875 C 9.097656 -14.421875 8.867188 -14.484375 8.703125 -14.609375 C 8.546875 -14.742188 8.472656 -14.929688 8.484375 -15.171875 C 8.484375 -15.535156 8.597656 -15.847656 8.828125 -16.109375 C 9.066406 -16.367188 9.378906 -16.5625 9.765625 -16.6875 C 9.765625 -16.820312 9.660156 -16.941406 9.453125 -17.046875 C 9.253906 -17.160156 9.015625 -17.21875 8.734375 -17.21875 C 8.285156 -17.21875 7.851562 -17.023438 7.4375 -16.640625 C 7.113281 -16.359375 6.847656 -15.90625 6.640625 -15.28125 C 6.429688 -14.65625 6.171875 -13.738281 5.859375 -12.53125 L 5.609375 -11.5625 L 5.609375 -11.546875 L 8.265625 -11.546875 L 8.125 -11.09375 L 5.484375 -11.09375 L 1.453125 3.90625 C 0.648438 3.9375 -0.0195312 4.039062 -0.5625 4.21875 L 3.53125 -11.09375 L 1.5 -11.09375 L 1.640625 -11.546875 L 3.65625 -11.546875 L 3.65625 -11.5625 C 3.988281 -12.789062 4.328125 -13.789062 4.671875 -14.5625 C 5.023438 -15.332031 5.453125 -15.957031 5.953125 -16.4375 C 6.296875 -16.78125 6.71875 -17.050781 7.21875 -17.25 C 7.71875 -17.457031 8.226562 -17.5625 8.75 -17.5625 Z M 8.75 -17.5625 "/></g></g></g><g fill="#004aad" fill-opacity="1"><g transform="translate(198.48461, 224.945138)"><g><path d="M 0.46875 -3.203125 C 0.46875 -4.390625 0.726562 -5.660156 1.25 -7.015625 C 1.78125 -8.367188 2.535156 -9.515625 3.515625 -10.453125 C 4.503906 -11.390625 5.648438 -11.859375 6.953125 -11.859375 C 7.910156 -11.859375 8.660156 -11.5625 9.203125 -10.96875 C 9.753906 -10.375 10.03125 -9.492188 10.03125 -8.328125 C 10.03125 -7.148438 9.769531 -5.882812 9.25 -4.53125 C 8.726562 -3.175781 7.972656 -2.03125 6.984375 -1.09375 C 5.992188 -0.15625 4.847656 0.3125 3.546875 0.3125 C 2.585938 0.3125 1.832031 0.0195312 1.28125 -0.5625 C 0.738281 -1.15625 0.46875 -2.035156 0.46875 -3.203125 Z M 6.828125 -11.40625 C 6.066406 -11.40625 5.34375 -10.914062 4.65625 -9.9375 C 3.976562 -8.96875 3.429688 -7.753906 3.015625 -6.296875 C 2.609375 -4.835938 2.40625 -3.4375 2.40625 -2.09375 C 2.40625 -1.414062 2.507812 -0.921875 2.71875 -0.609375 C 2.925781 -0.296875 3.25 -0.140625 3.6875 -0.140625 C 4.445312 -0.140625 5.164062 -0.625 5.84375 -1.59375 C 6.53125 -2.5625 7.078125 -3.773438 7.484375 -5.234375 C 7.898438 -6.703125 8.109375 -8.109375 8.109375 -9.453125 C 8.109375 -10.128906 8.003906 -10.625 7.796875 -10.9375 C 7.585938 -11.25 7.265625 -11.40625 6.828125 -11.40625 Z M 6.828125 -11.40625 "/></g></g></g><g fill="#004aad" fill-opacity="1"><g transform="translate(210.558544, 224.945138)"><g><path d="M 8.875 -11.859375 C 9.269531 -11.859375 9.585938 -11.738281 9.828125 -11.5 C 10.066406 -11.257812 10.1875 -10.953125 10.1875 -10.578125 C 10.1875 -10.128906 10.03125 -9.742188 9.71875 -9.421875 C 9.40625 -9.109375 9.039062 -8.953125 8.625 -8.953125 C 8.351562 -8.953125 8.132812 -9.023438 7.96875 -9.171875 C 7.800781 -9.316406 7.71875 -9.515625 7.71875 -9.765625 C 7.71875 -10.109375 7.804688 -10.398438 7.984375 -10.640625 C 8.171875 -10.878906 8.421875 -11.066406 8.734375 -11.203125 C 8.671875 -11.265625 8.585938 -11.296875 8.484375 -11.296875 C 7.679688 -11.296875 6.800781 -10.421875 5.84375 -8.671875 C 4.894531 -6.929688 4.003906 -4.632812 3.171875 -1.78125 L 2.71875 0 L 0.765625 0 L 3.453125 -9.625 C 3.554688 -9.957031 3.609375 -10.253906 3.609375 -10.515625 C 3.609375 -10.859375 3.453125 -11.03125 3.140625 -11.03125 C 2.816406 -11.03125 2.515625 -10.851562 2.234375 -10.5 C 1.953125 -10.144531 1.671875 -9.554688 1.390625 -8.734375 L 1.09375 -7.90625 L 0.671875 -7.90625 L 1.234375 -9.546875 C 1.773438 -11.085938 2.679688 -11.859375 3.953125 -11.859375 C 4.804688 -11.859375 5.234375 -11.421875 5.234375 -10.546875 C 5.234375 -10.128906 5.128906 -9.519531 4.921875 -8.71875 L 4.203125 -5.875 C 5.003906 -8.050781 5.757812 -9.59375 6.46875 -10.5 C 7.1875 -11.40625 7.988281 -11.859375 8.875 -11.859375 Z M 8.875 -11.859375 "/></g></g></g><g fill="#004aad" fill-opacity="1"><g transform="translate(221.241116, 224.945138)"><g><path d="M 17.046875 -3.640625 L 16.484375 -2 C 15.941406 -0.457031 15.035156 0.3125 13.765625 0.3125 C 13.085938 0.3125 12.625 0.109375 12.375 -0.296875 C 12.238281 -0.515625 12.171875 -0.773438 12.171875 -1.078125 C 12.171875 -1.484375 12.296875 -2.066406 12.546875 -2.828125 L 14.6875 -9.25 C 14.832031 -9.695312 14.90625 -10.09375 14.90625 -10.4375 C 14.90625 -10.90625 14.742188 -11.140625 14.421875 -11.140625 C 13.566406 -11.140625 12.601562 -10.160156 11.53125 -8.203125 C 10.457031 -6.253906 9.421875 -3.671875 8.421875 -0.453125 L 8.4375 -0.578125 L 8.28125 0 L 6.265625 0 L 9.078125 -9.25 C 9.222656 -9.695312 9.296875 -10.078125 9.296875 -10.390625 C 9.296875 -10.890625 9.085938 -11.140625 8.671875 -11.140625 C 8.117188 -11.140625 7.492188 -10.703125 6.796875 -9.828125 C 6.109375 -8.953125 5.429688 -7.753906 4.765625 -6.234375 C 4.097656 -4.722656 3.519531 -3.054688 3.03125 -1.234375 L 2.71875 0 L 0.765625 0 L 3.453125 -9.625 C 3.554688 -10.050781 3.609375 -10.332031 3.609375 -10.46875 C 3.609375 -10.84375 3.453125 -11.03125 3.140625 -11.03125 C 2.816406 -11.03125 2.515625 -10.851562 2.234375 -10.5 C 1.953125 -10.144531 1.671875 -9.554688 1.390625 -8.734375 L 1.09375 -7.90625 L 0.671875 -7.90625 L 1.234375 -9.546875 C 1.773438 -11.085938 2.679688 -11.859375 3.953125 -11.859375 C 4.816406 -11.859375 5.25 -11.410156 5.25 -10.515625 C 5.25 -10.117188 5.140625 -9.519531 4.921875 -8.71875 L 4.203125 -5.859375 C 5.097656 -8.046875 5.941406 -9.59375 6.734375 -10.5 C 7.523438 -11.40625 8.414062 -11.859375 9.40625 -11.859375 C 10.394531 -11.859375 10.890625 -11.332031 10.890625 -10.28125 C 10.890625 -9.820312 10.785156 -9.21875 10.578125 -8.46875 L 9.765625 -5.453125 C 10.390625 -7.023438 10.976562 -8.269531 11.53125 -9.1875 C 12.09375 -10.113281 12.660156 -10.789062 13.234375 -11.21875 C 13.804688 -11.644531 14.445312 -11.859375 15.15625 -11.859375 C 16.207031 -11.859375 16.734375 -11.296875 16.734375 -10.171875 C 16.734375 -9.691406 16.625 -9.125 16.40625 -8.46875 L 14.234375 -1.90625 C 14.117188 -1.519531 14.0625 -1.238281 14.0625 -1.0625 C 14.0625 -0.695312 14.238281 -0.515625 14.59375 -0.515625 C 14.894531 -0.515625 15.179688 -0.679688 15.453125 -1.015625 C 15.734375 -1.359375 16.023438 -1.957031 16.328125 -2.8125 L 16.609375 -3.640625 Z M 17.046875 -3.640625 "/></g></g></g><g fill="#004aad" fill-opacity="1"><g transform="translate(240.518716, 224.945138)"><g/></g></g><g fill="#004aad" fill-opacity="1"><g transform="translate(247.318932, 224.945138)"><g><path d="M 3.734375 -2.375 C 3.597656 -1.8125 3.53125 -1.445312 3.53125 -1.28125 C 3.53125 -0.96875 3.632812 -0.757812 3.84375 -0.65625 C 4.0625 -0.550781 4.460938 -0.484375 5.046875 -0.453125 L 4.96875 0 C 4.269531 -0.0390625 3.316406 -0.0625 2.109375 -0.0625 C 0.847656 -0.0625 -0.0976562 -0.0390625 -0.734375 0 L -0.625 -0.453125 C -0.101562 -0.484375 0.285156 -0.539062 0.546875 -0.625 C 0.804688 -0.71875 1.015625 -0.894531 1.171875 -1.15625 C 1.335938 -1.414062 1.492188 -1.820312 1.640625 -2.375 L 4.609375 -13.515625 C 4.722656 -14.023438 4.78125 -14.382812 4.78125 -14.59375 C 4.78125 -14.925781 4.671875 -15.144531 4.453125 -15.25 C 4.234375 -15.351562 3.84375 -15.421875 3.28125 -15.453125 L 3.390625 -15.890625 C 4.003906 -15.847656 4.953125 -15.828125 6.234375 -15.828125 C 7.429688 -15.828125 8.390625 -15.847656 9.109375 -15.890625 L 9 -15.453125 C 8.445312 -15.421875 8.039062 -15.359375 7.78125 -15.265625 C 7.519531 -15.179688 7.3125 -15.007812 7.15625 -14.75 C 7 -14.5 6.84375 -14.085938 6.6875 -13.515625 Z M 3.734375 -2.375 "/></g></g></g><g fill="#004aad" fill-opacity="1"><g transform="translate(256.093986, 224.945138)"><g><path d="M 10.59375 -3.640625 L 11.03125 -3.640625 L 10.515625 -2 C 10.253906 -1.175781 9.882812 -0.582031 9.40625 -0.21875 C 8.925781 0.132812 8.425781 0.3125 7.90625 0.3125 C 7.4375 0.3125 7.082031 0.191406 6.84375 -0.046875 C 6.601562 -0.285156 6.484375 -0.628906 6.484375 -1.078125 C 6.484375 -1.492188 6.582031 -2.078125 6.78125 -2.828125 L 7.09375 -3.96875 C 6.394531 -2.457031 5.675781 -1.363281 4.9375 -0.6875 C 4.207031 -0.0195312 3.429688 0.3125 2.609375 0.3125 C 1.867188 0.3125 1.289062 0.0664062 0.875 -0.421875 C 0.46875 -0.921875 0.265625 -1.664062 0.265625 -2.65625 C 0.265625 -3.894531 0.585938 -5.238281 1.234375 -6.6875 C 1.890625 -8.144531 2.773438 -9.367188 3.890625 -10.359375 C 5.003906 -11.359375 6.210938 -11.859375 7.515625 -11.859375 C 7.816406 -11.859375 8.09375 -11.757812 8.34375 -11.5625 C 8.601562 -11.363281 8.785156 -11.101562 8.890625 -10.78125 L 10.015625 -14.96875 C 10.078125 -15.164062 10.109375 -15.367188 10.109375 -15.578125 C 10.109375 -15.878906 9.988281 -16.097656 9.75 -16.234375 C 9.519531 -16.378906 9.128906 -16.453125 8.578125 -16.453125 L 8.71875 -16.921875 C 9.507812 -16.941406 10.222656 -17.023438 10.859375 -17.171875 C 11.492188 -17.328125 12.101562 -17.550781 12.6875 -17.84375 L 8.28125 -1.90625 C 8.195312 -1.550781 8.15625 -1.296875 8.15625 -1.140625 C 8.15625 -0.722656 8.332031 -0.515625 8.6875 -0.515625 C 8.988281 -0.515625 9.265625 -0.6875 9.515625 -1.03125 C 9.773438 -1.375 10.046875 -1.96875 10.328125 -2.8125 Z M 3.25 -0.40625 C 3.695312 -0.40625 4.210938 -0.71875 4.796875 -1.34375 C 5.390625 -1.976562 5.96875 -2.820312 6.53125 -3.875 C 7.101562 -4.925781 7.578125 -6.050781 7.953125 -7.25 L 8.734375 -10.1875 C 8.640625 -10.582031 8.484375 -10.875 8.265625 -11.0625 C 8.054688 -11.25 7.816406 -11.34375 7.546875 -11.34375 C 6.628906 -11.34375 5.765625 -10.859375 4.953125 -9.890625 C 4.148438 -8.921875 3.5 -7.722656 3 -6.296875 C 2.507812 -4.878906 2.265625 -3.566406 2.265625 -2.359375 C 2.265625 -1.054688 2.59375 -0.40625 3.25 -0.40625 Z M 3.25 -0.40625 "/></g></g></g><g fill="#004aad" fill-opacity="1"><g transform="translate(269.379752, 224.945138)"><g><path d="M 9.34375 -10.375 C 9.34375 -9.15625 8.660156 -8.085938 7.296875 -7.171875 C 5.929688 -6.265625 4.375 -5.53125 2.625 -4.96875 C 2.457031 -4.21875 2.375 -3.488281 2.375 -2.78125 C 2.375 -1.34375 2.890625 -0.625 3.921875 -0.625 C 5.210938 -0.625 6.367188 -1.375 7.390625 -2.875 L 7.75 -2.6875 C 7.269531 -1.863281 6.617188 -1.15625 5.796875 -0.5625 C 4.984375 0.0195312 4.128906 0.3125 3.234375 0.3125 C 2.304688 0.3125 1.578125 0.046875 1.046875 -0.484375 C 0.523438 -1.023438 0.265625 -1.8125 0.265625 -2.84375 C 0.265625 -3.988281 0.597656 -5.273438 1.265625 -6.703125 C 1.929688 -8.128906 2.832031 -9.34375 3.96875 -10.34375 C 5.113281 -11.351562 6.347656 -11.859375 7.671875 -11.859375 C 8.148438 -11.859375 8.546875 -11.726562 8.859375 -11.46875 C 9.179688 -11.21875 9.34375 -10.851562 9.34375 -10.375 Z M 7.1875 -11.421875 C 6.707031 -11.421875 6.171875 -11.140625 5.578125 -10.578125 C 4.984375 -10.023438 4.425781 -9.28125 3.90625 -8.34375 C 3.394531 -7.414062 3.003906 -6.429688 2.734375 -5.390625 C 4.160156 -5.878906 5.179688 -6.359375 5.796875 -6.828125 C 6.347656 -7.265625 6.773438 -7.789062 7.078125 -8.40625 C 7.390625 -9.03125 7.546875 -9.703125 7.546875 -10.421875 C 7.546875 -10.828125 7.515625 -11.09375 7.453125 -11.21875 C 7.390625 -11.351562 7.300781 -11.421875 7.1875 -11.421875 Z M 7.1875 -11.421875 "/></g></g></g><g fill="#004aad" fill-opacity="1"><g transform="translate(280.129644, 224.945138)"><g><path d="M 10.21875 -3.65625 L 10.640625 -3.65625 L 10.078125 -2.015625 C 9.773438 -1.191406 9.390625 -0.597656 8.921875 -0.234375 C 8.460938 0.128906 7.988281 0.3125 7.5 0.3125 C 7.21875 0.3125 6.96875 0.257812 6.75 0.15625 C 6.539062 0.0507812 6.378906 -0.0859375 6.265625 -0.265625 C 6.128906 -0.492188 6.0625 -0.757812 6.0625 -1.0625 C 6.0625 -1.375 6.113281 -1.722656 6.21875 -2.109375 C 6.320312 -2.492188 6.390625 -2.738281 6.421875 -2.84375 L 6.828125 -4.46875 C 6.109375 -2.789062 5.378906 -1.570312 4.640625 -0.8125 C 3.898438 -0.0625 3.125 0.3125 2.3125 0.3125 C 1.625 0.3125 1.097656 0.0664062 0.734375 -0.421875 C 0.378906 -0.921875 0.203125 -1.582031 0.203125 -2.40625 C 0.203125 -3.613281 0.523438 -4.96875 1.171875 -6.46875 C 1.816406 -7.96875 2.65625 -9.238281 3.6875 -10.28125 C 4.71875 -11.332031 5.765625 -11.859375 6.828125 -11.859375 C 7.234375 -11.859375 7.5625 -11.707031 7.8125 -11.40625 C 8.070312 -11.101562 8.222656 -10.6875 8.265625 -10.15625 L 8.625 -11.546875 C 9.445312 -11.566406 10.132812 -11.671875 10.6875 -11.859375 L 7.875 -1.9375 C 7.863281 -1.875 7.832031 -1.753906 7.78125 -1.578125 C 7.738281 -1.410156 7.71875 -1.25 7.71875 -1.09375 C 7.71875 -0.71875 7.882812 -0.53125 8.21875 -0.53125 C 8.875 -0.53125 9.453125 -1.296875 9.953125 -2.828125 Z M 2.96875 -0.40625 C 3.382812 -0.40625 3.882812 -0.722656 4.46875 -1.359375 C 5.050781 -2.003906 5.625 -2.863281 6.1875 -3.9375 C 6.75 -5.007812 7.207031 -6.148438 7.5625 -7.359375 L 7.96875 -8.953125 C 7.988281 -9.078125 8 -9.242188 8 -9.453125 C 8 -10.066406 7.890625 -10.546875 7.671875 -10.890625 C 7.453125 -11.242188 7.148438 -11.421875 6.765625 -11.421875 C 6.117188 -11.421875 5.4375 -10.921875 4.71875 -9.921875 C 4 -8.929688 3.394531 -7.707031 2.90625 -6.25 C 2.414062 -4.789062 2.171875 -3.421875 2.171875 -2.140625 C 2.171875 -1.523438 2.238281 -1.082031 2.375 -0.8125 C 2.507812 -0.539062 2.707031 -0.40625 2.96875 -0.40625 Z M 2.96875 -0.40625 "/></g></g></g><g fill="#004aad" fill-opacity="1"><g transform="translate(292.989014, 224.945138)"><g><path d="M 1.328125 -0.34375 C 1.472656 -0.257812 1.613281 -0.203125 1.75 -0.171875 C 1.894531 -0.148438 2.097656 -0.140625 2.359375 -0.140625 C 3.035156 -0.140625 3.582031 -0.335938 4 -0.734375 C 4.414062 -1.140625 4.625 -1.710938 4.625 -2.453125 C 4.625 -2.929688 4.535156 -3.394531 4.359375 -3.84375 C 4.179688 -4.300781 3.878906 -4.820312 3.453125 -5.40625 C 2.941406 -6.09375 2.570312 -6.65625 2.34375 -7.09375 C 2.113281 -7.539062 2 -8.066406 2 -8.671875 C 2 -9.285156 2.15625 -9.832031 2.46875 -10.3125 C 2.78125 -10.800781 3.203125 -11.179688 3.734375 -11.453125 C 4.265625 -11.722656 4.847656 -11.859375 5.484375 -11.859375 C 6.253906 -11.859375 6.898438 -11.710938 7.421875 -11.421875 C 7.953125 -11.128906 8.21875 -10.625 8.21875 -9.90625 C 8.21875 -9.632812 8.128906 -9.367188 7.953125 -9.109375 C 7.785156 -8.859375 7.53125 -8.734375 7.1875 -8.734375 C 6.925781 -8.734375 6.707031 -8.820312 6.53125 -9 C 6.363281 -9.175781 6.28125 -9.398438 6.28125 -9.671875 C 6.28125 -10.148438 6.492188 -10.65625 6.921875 -11.1875 C 6.628906 -11.363281 6.253906 -11.453125 5.796875 -11.453125 C 5.222656 -11.453125 4.753906 -11.257812 4.390625 -10.875 C 4.023438 -10.5 3.84375 -9.976562 3.84375 -9.3125 C 3.84375 -8.925781 3.910156 -8.59375 4.046875 -8.3125 C 4.179688 -8.039062 4.425781 -7.632812 4.78125 -7.09375 L 5.1875 -6.515625 C 5.632812 -5.828125 5.96875 -5.234375 6.1875 -4.734375 C 6.40625 -4.242188 6.515625 -3.734375 6.515625 -3.203125 C 6.515625 -2.535156 6.335938 -1.929688 5.984375 -1.390625 C 5.628906 -0.847656 5.15625 -0.425781 4.5625 -0.125 C 3.976562 0.164062 3.34375 0.3125 2.65625 0.3125 C 1.800781 0.3125 1.082031 0.128906 0.5 -0.234375 C -0.0820312 -0.597656 -0.375 -1.15625 -0.375 -1.90625 C -0.375 -2.164062 -0.300781 -2.398438 -0.15625 -2.609375 C -0.0195312 -2.816406 0.195312 -2.921875 0.5 -2.921875 C 0.820312 -2.921875 1.066406 -2.785156 1.234375 -2.515625 C 1.398438 -2.242188 1.484375 -1.90625 1.484375 -1.5 C 1.484375 -1.25 1.429688 -0.863281 1.328125 -0.34375 Z M 1.328125 -0.34375 "/></g></g></g><g fill="#004aad" fill-opacity="1"><g transform="translate(302.66172, 224.945138)"><g/></g></g><g fill="#004aad" fill-opacity="1"><g transform="translate(309.461936, 224.945138)"><g><path d="M 4.21875 -15.328125 C 4.21875 -15.785156 4.382812 -16.1875 4.71875 -16.53125 C 5.0625 -16.882812 5.445312 -17.0625 5.875 -17.0625 C 6.226562 -17.0625 6.507812 -16.945312 6.71875 -16.71875 C 6.925781 -16.5 7.03125 -16.222656 7.03125 -15.890625 C 7.03125 -15.441406 6.859375 -15.046875 6.515625 -14.703125 C 6.171875 -14.359375 5.78125 -14.1875 5.34375 -14.1875 C 5.007812 -14.1875 4.738281 -14.296875 4.53125 -14.515625 C 4.320312 -14.734375 4.21875 -15.003906 4.21875 -15.328125 Z M 3.546875 -9.625 C 3.671875 -9.988281 3.734375 -10.269531 3.734375 -10.46875 C 3.734375 -10.84375 3.566406 -11.03125 3.234375 -11.03125 C 2.890625 -11.03125 2.582031 -10.847656 2.3125 -10.484375 C 2.039062 -10.128906 1.753906 -9.546875 1.453125 -8.734375 L 1.140625 -7.90625 L 0.71875 -7.90625 L 1.296875 -9.546875 C 1.597656 -10.398438 2 -11 2.5 -11.34375 C 3 -11.6875 3.53125 -11.859375 4.09375 -11.859375 C 5.070312 -11.859375 5.5625 -11.382812 5.5625 -10.4375 C 5.5625 -9.945312 5.441406 -9.375 5.203125 -8.71875 L 2.8125 -1.90625 C 2.6875 -1.550781 2.625 -1.273438 2.625 -1.078125 C 2.625 -0.703125 2.804688 -0.515625 3.171875 -0.515625 C 3.484375 -0.515625 3.773438 -0.6875 4.046875 -1.03125 C 4.316406 -1.375 4.609375 -1.96875 4.921875 -2.8125 L 5.234375 -3.640625 L 5.65625 -3.640625 L 5.078125 -2 C 4.773438 -1.175781 4.378906 -0.582031 3.890625 -0.21875 C 3.410156 0.132812 2.882812 0.3125 2.3125 0.3125 C 1.257812 0.3125 0.734375 -0.144531 0.734375 -1.0625 C 0.734375 -1.488281 0.867188 -2.078125 1.140625 -2.828125 Z M 3.546875 -9.625 "/></g></g></g><g fill="#004aad" fill-opacity="1"><g transform="translate(317.36178, 224.945138)"><g><path d="M 11.90625 -3.640625 L 11.34375 -2 C 10.800781 -0.457031 9.894531 0.3125 8.625 0.3125 C 7.945312 0.3125 7.472656 0.09375 7.203125 -0.34375 C 7.085938 -0.519531 7.03125 -0.765625 7.03125 -1.078125 C 7.03125 -1.484375 7.15625 -2.066406 7.40625 -2.828125 L 9.546875 -9.25 C 9.691406 -9.738281 9.765625 -10.101562 9.765625 -10.34375 C 9.765625 -10.875 9.523438 -11.140625 9.046875 -11.140625 C 8.484375 -11.140625 7.835938 -10.722656 7.109375 -9.890625 C 6.378906 -9.054688 5.660156 -7.910156 4.953125 -6.453125 C 4.253906 -5.003906 3.648438 -3.398438 3.140625 -1.640625 L 2.734375 0 L 0.78125 0 L 3.484375 -9.625 C 3.585938 -10.019531 3.640625 -10.300781 3.640625 -10.46875 C 3.640625 -10.84375 3.472656 -11.03125 3.140625 -11.03125 C 2.816406 -11.03125 2.523438 -10.863281 2.265625 -10.53125 C 2.015625 -10.195312 1.734375 -9.597656 1.421875 -8.734375 L 1.125 -7.90625 L 0.703125 -7.90625 L 1.25 -9.546875 C 1.789062 -11.085938 2.679688 -11.859375 3.921875 -11.859375 C 4.398438 -11.859375 4.738281 -11.738281 4.9375 -11.5 C 5.144531 -11.269531 5.25 -10.945312 5.25 -10.53125 C 5.25 -10.125 5.144531 -9.519531 4.9375 -8.71875 L 4.15625 -5.640625 C 5.113281 -7.898438 6.03125 -9.5 6.90625 -10.4375 C 7.78125 -11.382812 8.742188 -11.859375 9.796875 -11.859375 C 11.003906 -11.859375 11.609375 -11.296875 11.609375 -10.171875 C 11.609375 -9.679688 11.492188 -9.113281 11.265625 -8.46875 L 9.09375 -1.90625 C 8.96875 -1.550781 8.90625 -1.269531 8.90625 -1.0625 C 8.90625 -0.695312 9.085938 -0.515625 9.453125 -0.515625 C 9.753906 -0.515625 10.039062 -0.679688 10.3125 -1.015625 C 10.59375 -1.359375 10.882812 -1.957031 11.1875 -2.8125 L 11.46875 -3.640625 Z M 11.90625 -3.640625 "/></g></g></g><g fill="#004aad" fill-opacity="1"><g transform="translate(331.500325, 224.945138)"><g><path d="M 2.71875 -1.90625 C 2.675781 -1.726562 2.65625 -1.566406 2.65625 -1.421875 C 2.65625 -1.117188 2.742188 -0.890625 2.921875 -0.734375 C 3.097656 -0.585938 3.328125 -0.515625 3.609375 -0.515625 C 3.984375 -0.515625 4.332031 -0.675781 4.65625 -1 C 4.976562 -1.320312 5.296875 -1.910156 5.609375 -2.765625 L 5.921875 -3.640625 L 6.359375 -3.640625 L 5.875 -2.21875 C 5.5625 -1.289062 5.15625 -0.632812 4.65625 -0.25 C 4.15625 0.125 3.539062 0.3125 2.8125 0.3125 C 2.132812 0.3125 1.628906 0.148438 1.296875 -0.171875 C 0.972656 -0.503906 0.8125 -0.960938 0.8125 -1.546875 C 0.8125 -1.941406 0.878906 -2.367188 1.015625 -2.828125 L 3.390625 -11.09375 L 1.375 -11.09375 L 1.484375 -11.546875 L 3.5 -11.546875 L 4.484375 -14.953125 C 5.296875 -14.984375 5.972656 -15.085938 6.515625 -15.265625 L 5.453125 -11.546875 L 8.421875 -11.546875 L 8.359375 -11.09375 L 5.328125 -11.09375 Z M 2.71875 -1.90625 "/></g></g></g><g fill="#004aad" fill-opacity="1"><g transform="translate(340.163182, 224.945138)"><g><path d="M 0.46875 -3.203125 C 0.46875 -4.390625 0.726562 -5.660156 1.25 -7.015625 C 1.78125 -8.367188 2.535156 -9.515625 3.515625 -10.453125 C 4.503906 -11.390625 5.648438 -11.859375 6.953125 -11.859375 C 7.910156 -11.859375 8.660156 -11.5625 9.203125 -10.96875 C 9.753906 -10.375 10.03125 -9.492188 10.03125 -8.328125 C 10.03125 -7.148438 9.769531 -5.882812 9.25 -4.53125 C 8.726562 -3.175781 7.972656 -2.03125 6.984375 -1.09375 C 5.992188 -0.15625 4.847656 0.3125 3.546875 0.3125 C 2.585938 0.3125 1.832031 0.0195312 1.28125 -0.5625 C 0.738281 -1.15625 0.46875 -2.035156 0.46875 -3.203125 Z M 6.828125 -11.40625 C 6.066406 -11.40625 5.34375 -10.914062 4.65625 -9.9375 C 3.976562 -8.96875 3.429688 -7.753906 3.015625 -6.296875 C 2.609375 -4.835938 2.40625 -3.4375 2.40625 -2.09375 C 2.40625 -1.414062 2.507812 -0.921875 2.71875 -0.609375 C 2.925781 -0.296875 3.25 -0.140625 3.6875 -0.140625 C 4.445312 -0.140625 5.164062 -0.625 5.84375 -1.59375 C 6.53125 -2.5625 7.078125 -3.773438 7.484375 -5.234375 C 7.898438 -6.703125 8.109375 -8.109375 8.109375 -9.453125 C 8.109375 -10.128906 8.003906 -10.625 7.796875 -10.9375 C 7.585938 -11.25 7.265625 -11.40625 6.828125 -11.40625 Z M 6.828125 -11.40625 "/></g></g></g><g fill="#004aad" fill-opacity="1"><g transform="translate(352.23711, 224.945138)"><g/></g></g><g fill="#004aad" fill-opacity="1"><g transform="translate(359.037326, 224.945138)"><g><path d="M 9.953125 -15.828125 C 12.046875 -15.828125 13.535156 -15.847656 14.421875 -15.890625 C 14.023438 -14.816406 13.738281 -13.9375 13.5625 -13.25 C 13.394531 -12.707031 13.289062 -12.242188 13.25 -11.859375 L 12.734375 -11.859375 C 12.867188 -12.722656 12.9375 -13.320312 12.9375 -13.65625 C 12.9375 -14.289062 12.769531 -14.734375 12.4375 -14.984375 C 12.101562 -15.242188 11.515625 -15.375 10.671875 -15.375 L 9.03125 -15.375 C 8.488281 -15.375 8.085938 -15.332031 7.828125 -15.25 C 7.566406 -15.175781 7.351562 -15.007812 7.1875 -14.75 C 7.019531 -14.5 6.863281 -14.085938 6.71875 -13.515625 L 5.296875 -8.21875 L 6.78125 -8.21875 C 7.300781 -8.21875 7.734375 -8.335938 8.078125 -8.578125 C 8.421875 -8.828125 8.691406 -9.117188 8.890625 -9.453125 C 9.085938 -9.785156 9.28125 -10.203125 9.46875 -10.703125 C 9.519531 -10.859375 9.582031 -11.019531 9.65625 -11.1875 L 10.171875 -11.1875 C 9.859375 -10.195312 9.597656 -9.304688 9.390625 -8.515625 L 9.25 -8 C 9.039062 -7.195312 8.800781 -6.132812 8.53125 -4.8125 L 8.015625 -4.8125 L 8.078125 -5.25 C 8.097656 -5.351562 8.125 -5.515625 8.15625 -5.734375 C 8.1875 -5.960938 8.203125 -6.160156 8.203125 -6.328125 C 8.203125 -6.773438 8.082031 -7.125 7.84375 -7.375 C 7.613281 -7.632812 7.210938 -7.765625 6.640625 -7.765625 L 5.171875 -7.765625 L 3.734375 -2.375 C 3.597656 -1.914062 3.53125 -1.550781 3.53125 -1.28125 C 3.53125 -0.96875 3.640625 -0.757812 3.859375 -0.65625 C 4.085938 -0.5625 4.484375 -0.515625 5.046875 -0.515625 L 6.6875 -0.515625 C 7.613281 -0.515625 8.351562 -0.632812 8.90625 -0.875 C 9.46875 -1.125 9.929688 -1.519531 10.296875 -2.0625 C 10.660156 -2.613281 11.035156 -3.421875 11.421875 -4.484375 L 11.9375 -4.484375 C 11.78125 -4.054688 11.617188 -3.519531 11.453125 -2.875 C 11.210938 -2.03125 11.007812 -1.070312 10.84375 0 C 9.820312 -0.0390625 8.109375 -0.0625 5.703125 -0.0625 C 2.828125 -0.0625 0.664062 -0.0390625 -0.78125 0 L -0.671875 -0.453125 C -0.128906 -0.484375 0.269531 -0.539062 0.53125 -0.625 C 0.789062 -0.71875 1.003906 -0.890625 1.171875 -1.140625 C 1.335938 -1.398438 1.492188 -1.8125 1.640625 -2.375 L 4.625 -13.515625 C 4.757812 -13.992188 4.828125 -14.359375 4.828125 -14.609375 C 4.828125 -14.929688 4.71875 -15.144531 4.5 -15.25 C 4.28125 -15.351562 3.890625 -15.421875 3.328125 -15.453125 L 3.4375 -15.890625 C 4.90625 -15.847656 7.078125 -15.828125 9.953125 -15.828125 Z M 9.953125 -15.828125 "/></g></g></g><g fill="#004aad" fill-opacity="1"><g transform="translate(373.849092, 224.945138)"><g><path d="M 10.734375 -11.859375 C 11.015625 -11.859375 11.25 -11.78125 11.4375 -11.625 C 11.625 -11.476562 11.71875 -11.28125 11.71875 -11.03125 C 11.71875 -10.738281 11.601562 -10.484375 11.375 -10.265625 C 11.15625 -10.054688 10.875 -9.953125 10.53125 -9.953125 C 10.019531 -9.953125 9.546875 -10.128906 9.109375 -10.484375 C 8.171875 -9.628906 7.363281 -8.320312 6.6875 -6.5625 L 7.234375 -1.75 C 7.285156 -1.375 7.367188 -1.109375 7.484375 -0.953125 C 7.609375 -0.796875 7.78125 -0.71875 8 -0.71875 C 8.25 -0.71875 8.488281 -0.863281 8.71875 -1.15625 C 8.957031 -1.445312 9.21875 -1.988281 9.5 -2.78125 L 9.796875 -3.609375 L 10.21875 -3.609375 L 9.65625 -1.96875 C 9.101562 -0.445312 8.25 0.3125 7.09375 0.3125 C 6.019531 0.3125 5.398438 -0.375 5.234375 -1.75 L 4.890625 -4.671875 C 4.296875 -3.335938 3.503906 -2.140625 2.515625 -1.078125 C 2.046875 -0.597656 1.632812 -0.242188 1.28125 -0.015625 C 0.9375 0.203125 0.59375 0.3125 0.25 0.3125 C -0.0820312 0.3125 -0.332031 0.238281 -0.5 0.09375 C -0.675781 -0.0390625 -0.765625 -0.242188 -0.765625 -0.515625 C -0.765625 -0.796875 -0.648438 -1.046875 -0.421875 -1.265625 C -0.203125 -1.484375 0.0703125 -1.59375 0.40625 -1.59375 C 0.882812 -1.59375 1.351562 -1.414062 1.8125 -1.0625 C 2.425781 -1.625 2.992188 -2.300781 3.515625 -3.09375 C 4.046875 -3.882812 4.476562 -4.679688 4.8125 -5.484375 L 4.328125 -9.796875 C 4.273438 -10.160156 4.1875 -10.421875 4.0625 -10.578125 C 3.945312 -10.742188 3.78125 -10.828125 3.5625 -10.828125 C 3.3125 -10.828125 3.070312 -10.679688 2.84375 -10.390625 C 2.613281 -10.097656 2.351562 -9.550781 2.0625 -8.75 L 1.78125 -7.921875 L 1.34375 -7.921875 L 1.90625 -9.5625 C 2.457031 -11.09375 3.3125 -11.859375 4.46875 -11.859375 C 5.019531 -11.859375 5.445312 -11.703125 5.75 -11.390625 C 6.050781 -11.085938 6.242188 -10.554688 6.328125 -9.796875 L 6.59375 -7.484375 C 7.09375 -8.617188 7.722656 -9.617188 8.484375 -10.484375 C 8.898438 -10.972656 9.285156 -11.320312 9.640625 -11.53125 C 9.992188 -11.75 10.359375 -11.859375 10.734375 -11.859375 Z M 10.734375 -11.859375 "/></g></g></g><g fill="#004aad" fill-opacity="1"><g transform="translate(386.775788, 224.945138)"><g><path d="M 9.34375 -10.375 C 9.34375 -9.15625 8.660156 -8.085938 7.296875 -7.171875 C 5.929688 -6.265625 4.375 -5.53125 2.625 -4.96875 C 2.457031 -4.21875 2.375 -3.488281 2.375 -2.78125 C 2.375 -1.34375 2.890625 -0.625 3.921875 -0.625 C 5.210938 -0.625 6.367188 -1.375 7.390625 -2.875 L 7.75 -2.6875 C 7.269531 -1.863281 6.617188 -1.15625 5.796875 -0.5625 C 4.984375 0.0195312 4.128906 0.3125 3.234375 0.3125 C 2.304688 0.3125 1.578125 0.046875 1.046875 -0.484375 C 0.523438 -1.023438 0.265625 -1.8125 0.265625 -2.84375 C 0.265625 -3.988281 0.597656 -5.273438 1.265625 -6.703125 C 1.929688 -8.128906 2.832031 -9.34375 3.96875 -10.34375 C 5.113281 -11.351562 6.347656 -11.859375 7.671875 -11.859375 C 8.148438 -11.859375 8.546875 -11.726562 8.859375 -11.46875 C 9.179688 -11.21875 9.34375 -10.851562 9.34375 -10.375 Z M 7.1875 -11.421875 C 6.707031 -11.421875 6.171875 -11.140625 5.578125 -10.578125 C 4.984375 -10.023438 4.425781 -9.28125 3.90625 -8.34375 C 3.394531 -7.414062 3.003906 -6.429688 2.734375 -5.390625 C 4.160156 -5.878906 5.179688 -6.359375 5.796875 -6.828125 C 6.347656 -7.265625 6.773438 -7.789062 7.078125 -8.40625 C 7.390625 -9.03125 7.546875 -9.703125 7.546875 -10.421875 C 7.546875 -10.828125 7.515625 -11.09375 7.453125 -11.21875 C 7.390625 -11.351562 7.300781 -11.421875 7.1875 -11.421875 Z M 7.1875 -11.421875 "/></g></g></g><g fill="#004aad" fill-opacity="1"><g transform="translate(397.52568, 224.945138)"><g><path d="M 7.25 -11.40625 C 6.5 -11.40625 5.753906 -11 5.015625 -10.1875 C 4.273438 -9.382812 3.671875 -8.316406 3.203125 -6.984375 C 2.734375 -5.648438 2.5 -4.25 2.5 -2.78125 C 2.5 -2.050781 2.632812 -1.507812 2.90625 -1.15625 C 3.1875 -0.800781 3.570312 -0.625 4.0625 -0.625 C 5.289062 -0.625 6.414062 -1.375 7.4375 -2.875 L 7.875 -2.6875 C 7.394531 -1.863281 6.75 -1.15625 5.9375 -0.5625 C 5.125 0.0195312 4.269531 0.3125 3.375 0.3125 C 2.457031 0.3125 1.734375 0.03125 1.203125 -0.53125 C 0.671875 -1.09375 0.40625 -1.910156 0.40625 -2.984375 C 0.40625 -4.203125 0.6875 -5.503906 1.25 -6.890625 C 1.820312 -8.285156 2.625 -9.460938 3.65625 -10.421875 C 4.6875 -11.378906 5.863281 -11.859375 7.1875 -11.859375 C 7.875 -11.859375 8.445312 -11.6875 8.90625 -11.34375 C 9.375 -11 9.609375 -10.535156 9.609375 -9.953125 C 9.609375 -9.484375 9.457031 -9.066406 9.15625 -8.703125 C 8.863281 -8.335938 8.484375 -8.15625 8.015625 -8.15625 C 7.710938 -8.15625 7.484375 -8.234375 7.328125 -8.390625 C 7.171875 -8.554688 7.09375 -8.769531 7.09375 -9.03125 C 7.09375 -9.445312 7.253906 -9.804688 7.578125 -10.109375 C 7.910156 -10.421875 8.3125 -10.617188 8.78125 -10.703125 C 8.46875 -11.171875 7.957031 -11.40625 7.25 -11.40625 Z M 7.25 -11.40625 "/></g></g></g><g fill="#004aad" fill-opacity="1"><g transform="translate(408.34291, 224.945138)"><g><path d="M 11.203125 -3.640625 L 11.625 -3.640625 L 11.0625 -2 C 10.53125 -0.457031 9.628906 0.3125 8.359375 0.3125 C 8.117188 0.3125 7.890625 0.257812 7.671875 0.15625 C 7.460938 0.0507812 7.304688 -0.0976562 7.203125 -0.296875 C 7.117188 -0.503906 7.078125 -0.734375 7.078125 -0.984375 C 7.078125 -1.378906 7.179688 -1.992188 7.390625 -2.828125 L 8.078125 -5.640625 C 7.210938 -3.492188 6.367188 -1.960938 5.546875 -1.046875 C 4.722656 -0.140625 3.820312 0.3125 2.84375 0.3125 C 1.59375 0.3125 0.96875 -0.265625 0.96875 -1.421875 C 0.96875 -1.898438 1.070312 -2.453125 1.28125 -3.078125 L 3.453125 -9.625 C 3.578125 -9.988281 3.640625 -10.269531 3.640625 -10.46875 C 3.640625 -10.84375 3.457031 -11.03125 3.09375 -11.03125 C 2.800781 -11.03125 2.515625 -10.859375 2.234375 -10.515625 C 1.953125 -10.179688 1.664062 -9.585938 1.375 -8.734375 L 1.078125 -7.90625 L 0.65625 -7.90625 L 1.21875 -9.546875 C 1.75 -11.085938 2.648438 -11.859375 3.921875 -11.859375 C 4.972656 -11.859375 5.5 -11.394531 5.5 -10.46875 C 5.5 -10.019531 5.378906 -9.4375 5.140625 -8.71875 L 3.015625 -2.296875 C 2.859375 -1.835938 2.78125 -1.460938 2.78125 -1.171875 C 2.78125 -0.660156 3.019531 -0.40625 3.5 -0.40625 C 4.082031 -0.40625 4.722656 -0.832031 5.421875 -1.6875 C 6.128906 -2.550781 6.828125 -3.742188 7.515625 -5.265625 C 8.203125 -6.796875 8.800781 -8.519531 9.3125 -10.4375 L 9.59375 -11.546875 C 10.445312 -11.566406 11.125 -11.671875 11.625 -11.859375 L 8.84375 -1.90625 C 8.738281 -1.519531 8.6875 -1.226562 8.6875 -1.03125 C 8.6875 -0.6875 8.84375 -0.515625 9.15625 -0.515625 C 9.488281 -0.515625 9.789062 -0.691406 10.0625 -1.046875 C 10.34375 -1.398438 10.625 -1.988281 10.90625 -2.8125 Z M 11.203125 -3.640625 "/></g></g></g><g fill="#004aad" fill-opacity="1"><g transform="translate(422.18971, 224.945138)"><g><path d="M 2.71875 -1.90625 C 2.675781 -1.726562 2.65625 -1.566406 2.65625 -1.421875 C 2.65625 -1.117188 2.742188 -0.890625 2.921875 -0.734375 C 3.097656 -0.585938 3.328125 -0.515625 3.609375 -0.515625 C 3.984375 -0.515625 4.332031 -0.675781 4.65625 -1 C 4.976562 -1.320312 5.296875 -1.910156 5.609375 -2.765625 L 5.921875 -3.640625 L 6.359375 -3.640625 L 5.875 -2.21875 C 5.5625 -1.289062 5.15625 -0.632812 4.65625 -0.25 C 4.15625 0.125 3.539062 0.3125 2.8125 0.3125 C 2.132812 0.3125 1.628906 0.148438 1.296875 -0.171875 C 0.972656 -0.503906 0.8125 -0.960938 0.8125 -1.546875 C 0.8125 -1.941406 0.878906 -2.367188 1.015625 -2.828125 L 3.390625 -11.09375 L 1.375 -11.09375 L 1.484375 -11.546875 L 3.5 -11.546875 L 4.484375 -14.953125 C 5.296875 -14.984375 5.972656 -15.085938 6.515625 -15.265625 L 5.453125 -11.546875 L 8.421875 -11.546875 L 8.359375 -11.09375 L 5.328125 -11.09375 Z M 2.71875 -1.90625 "/></g></g></g><g fill="#004aad" fill-opacity="1"><g transform="translate(430.852567, 224.945138)"><g><path d="M 10.21875 -3.65625 L 10.640625 -3.65625 L 10.078125 -2.015625 C 9.773438 -1.191406 9.390625 -0.597656 8.921875 -0.234375 C 8.460938 0.128906 7.988281 0.3125 7.5 0.3125 C 7.21875 0.3125 6.96875 0.257812 6.75 0.15625 C 6.539062 0.0507812 6.378906 -0.0859375 6.265625 -0.265625 C 6.128906 -0.492188 6.0625 -0.757812 6.0625 -1.0625 C 6.0625 -1.375 6.113281 -1.722656 6.21875 -2.109375 C 6.320312 -2.492188 6.390625 -2.738281 6.421875 -2.84375 L 6.828125 -4.46875 C 6.109375 -2.789062 5.378906 -1.570312 4.640625 -0.8125 C 3.898438 -0.0625 3.125 0.3125 2.3125 0.3125 C 1.625 0.3125 1.097656 0.0664062 0.734375 -0.421875 C 0.378906 -0.921875 0.203125 -1.582031 0.203125 -2.40625 C 0.203125 -3.613281 0.523438 -4.96875 1.171875 -6.46875 C 1.816406 -7.96875 2.65625 -9.238281 3.6875 -10.28125 C 4.71875 -11.332031 5.765625 -11.859375 6.828125 -11.859375 C 7.234375 -11.859375 7.5625 -11.707031 7.8125 -11.40625 C 8.070312 -11.101562 8.222656 -10.6875 8.265625 -10.15625 L 8.625 -11.546875 C 9.445312 -11.566406 10.132812 -11.671875 10.6875 -11.859375 L 7.875 -1.9375 C 7.863281 -1.875 7.832031 -1.753906 7.78125 -1.578125 C 7.738281 -1.410156 7.71875 -1.25 7.71875 -1.09375 C 7.71875 -0.71875 7.882812 -0.53125 8.21875 -0.53125 C 8.875 -0.53125 9.453125 -1.296875 9.953125 -2.828125 Z M 2.96875 -0.40625 C 3.382812 -0.40625 3.882812 -0.722656 4.46875 -1.359375 C 5.050781 -2.003906 5.625 -2.863281 6.1875 -3.9375 C 6.75 -5.007812 7.207031 -6.148438 7.5625 -7.359375 L 7.96875 -8.953125 C 7.988281 -9.078125 8 -9.242188 8 -9.453125 C 8 -10.066406 7.890625 -10.546875 7.671875 -10.890625 C 7.453125 -11.242188 7.148438 -11.421875 6.765625 -11.421875 C 6.117188 -11.421875 5.4375 -10.921875 4.71875 -9.921875 C 4 -8.929688 3.394531 -7.707031 2.90625 -6.25 C 2.414062 -4.789062 2.171875 -3.421875 2.171875 -2.140625 C 2.171875 -1.523438 2.238281 -1.082031 2.375 -0.8125 C 2.507812 -0.539062 2.707031 -0.40625 2.96875 -0.40625 Z M 2.96875 -0.40625 "/></g></g></g><g fill="#004aad" fill-opacity="1"><g transform="translate(443.711949, 224.945138)"><g><path d="M 8.125 -11.859375 C 8.863281 -11.859375 9.4375 -11.59375 9.84375 -11.0625 C 10.257812 -10.53125 10.46875 -9.738281 10.46875 -8.6875 C 10.46875 -7.476562 10.195312 -6.164062 9.65625 -4.75 C 9.113281 -3.332031 8.34375 -2.132812 7.34375 -1.15625 C 6.34375 -0.175781 5.191406 0.3125 3.890625 0.3125 C 3.429688 0.3125 3.035156 0.179688 2.703125 -0.078125 C 2.367188 -0.335938 2.132812 -0.707031 2 -1.1875 L 0.09375 0.359375 L -0.25 0.203125 C -0.0703125 -0.171875 0.0664062 -0.601562 0.171875 -1.09375 L 4.109375 -14.96875 C 4.171875 -15.164062 4.203125 -15.367188 4.203125 -15.578125 C 4.203125 -15.878906 4.085938 -16.097656 3.859375 -16.234375 C 3.640625 -16.378906 3.25 -16.453125 2.6875 -16.453125 L 2.8125 -16.921875 C 3.601562 -16.941406 4.3125 -17.023438 4.9375 -17.171875 C 5.5625 -17.328125 6.171875 -17.550781 6.765625 -17.84375 L 3.859375 -7.25 C 4.566406 -8.863281 5.257812 -10.035156 5.9375 -10.765625 C 6.613281 -11.492188 7.34375 -11.859375 8.125 -11.859375 Z M 3.859375 -0.203125 C 4.648438 -0.203125 5.40625 -0.695312 6.125 -1.6875 C 6.84375 -2.6875 7.421875 -3.894531 7.859375 -5.3125 C 8.304688 -6.738281 8.53125 -8.03125 8.53125 -9.1875 C 8.53125 -9.832031 8.4375 -10.316406 8.25 -10.640625 C 8.0625 -10.972656 7.804688 -11.140625 7.484375 -11.140625 C 6.878906 -11.140625 6.15625 -10.476562 5.3125 -9.15625 C 4.46875 -7.84375 3.707031 -6.21875 3.03125 -4.28125 L 2.265625 -1.4375 C 2.441406 -0.988281 2.660156 -0.671875 2.921875 -0.484375 C 3.191406 -0.296875 3.503906 -0.203125 3.859375 -0.203125 Z M 3.859375 -0.203125 "/></g></g></g><g fill="#004aad" fill-opacity="1"><g transform="translate(456.144946, 224.945138)"><g><path d="M 2.296875 -1.90625 C 2.203125 -1.59375 2.15625 -1.332031 2.15625 -1.125 C 2.15625 -0.71875 2.328125 -0.515625 2.671875 -0.515625 C 2.972656 -0.515625 3.253906 -0.6875 3.515625 -1.03125 C 3.773438 -1.375 4.054688 -1.96875 4.359375 -2.8125 L 4.640625 -3.640625 L 5.078125 -3.640625 L 4.515625 -2 C 3.992188 -0.457031 3.09375 0.3125 1.8125 0.3125 C 0.78125 0.3125 0.265625 -0.171875 0.265625 -1.140625 C 0.265625 -1.515625 0.367188 -2.078125 0.578125 -2.828125 L 4.25 -14.96875 C 4.320312 -15.238281 4.359375 -15.453125 4.359375 -15.609375 C 4.359375 -15.898438 4.238281 -16.113281 4 -16.25 C 3.769531 -16.382812 3.378906 -16.453125 2.828125 -16.453125 L 2.984375 -16.921875 C 3.773438 -16.941406 4.488281 -17.023438 5.125 -17.171875 C 5.757812 -17.328125 6.378906 -17.550781 6.984375 -17.84375 Z M 2.296875 -1.90625 "/></g></g></g><g fill="#004aad" fill-opacity="1"><g transform="translate(463.483767, 224.945138)"><g><path d="M 9.34375 -10.375 C 9.34375 -9.15625 8.660156 -8.085938 7.296875 -7.171875 C 5.929688 -6.265625 4.375 -5.53125 2.625 -4.96875 C 2.457031 -4.21875 2.375 -3.488281 2.375 -2.78125 C 2.375 -1.34375 2.890625 -0.625 3.921875 -0.625 C 5.210938 -0.625 6.367188 -1.375 7.390625 -2.875 L 7.75 -2.6875 C 7.269531 -1.863281 6.617188 -1.15625 5.796875 -0.5625 C 4.984375 0.0195312 4.128906 0.3125 3.234375 0.3125 C 2.304688 0.3125 1.578125 0.046875 1.046875 -0.484375 C 0.523438 -1.023438 0.265625 -1.8125 0.265625 -2.84375 C 0.265625 -3.988281 0.597656 -5.273438 1.265625 -6.703125 C 1.929688 -8.128906 2.832031 -9.34375 3.96875 -10.34375 C 5.113281 -11.351562 6.347656 -11.859375 7.671875 -11.859375 C 8.148438 -11.859375 8.546875 -11.726562 8.859375 -11.46875 C 9.179688 -11.21875 9.34375 -10.851562 9.34375 -10.375 Z M 7.1875 -11.421875 C 6.707031 -11.421875 6.171875 -11.140625 5.578125 -10.578125 C 4.984375 -10.023438 4.425781 -9.28125 3.90625 -8.34375 C 3.394531 -7.414062 3.003906 -6.429688 2.734375 -5.390625 C 4.160156 -5.878906 5.179688 -6.359375 5.796875 -6.828125 C 6.347656 -7.265625 6.773438 -7.789062 7.078125 -8.40625 C 7.390625 -9.03125 7.546875 -9.703125 7.546875 -10.421875 C 7.546875 -10.828125 7.515625 -11.09375 7.453125 -11.21875 C 7.390625 -11.351562 7.300781 -11.421875 7.1875 -11.421875 Z M 7.1875 -11.421875 "/></g></g></g><g fill="#004aad" fill-opacity="1"><g transform="translate(244.749246, 255.695135)"><g><path d="M 8.875 -8.390625 C 10.175781 -8.179688 11.113281 -7.753906 11.6875 -7.109375 C 12.257812 -6.472656 12.546875 -5.679688 12.546875 -4.734375 C 12.546875 -3.710938 12.222656 -2.847656 11.578125 -2.140625 C 10.941406 -1.429688 10.109375 -0.894531 9.078125 -0.53125 C 8.054688 -0.175781 6.984375 0 5.859375 0 L 4.21875 -0.015625 C 3.320312 -0.046875 2.582031 -0.0625 2 -0.0625 C 0.800781 -0.0625 -0.109375 -0.0390625 -0.734375 0 L -0.65625 -0.453125 C -0.113281 -0.484375 0.289062 -0.539062 0.5625 -0.625 C 0.832031 -0.71875 1.046875 -0.890625 1.203125 -1.140625 C 1.359375 -1.398438 1.507812 -1.8125 1.65625 -2.375 L 4.625 -13.515625 C 4.75 -13.960938 4.8125 -14.320312 4.8125 -14.59375 C 4.8125 -14.875 4.703125 -15.082031 4.484375 -15.21875 C 4.265625 -15.351562 3.867188 -15.429688 3.296875 -15.453125 L 3.40625 -15.890625 C 4.007812 -15.847656 4.898438 -15.828125 6.078125 -15.828125 C 6.753906 -15.828125 7.265625 -15.835938 7.609375 -15.859375 L 9.25 -15.875 C 10.644531 -15.875 11.695312 -15.617188 12.40625 -15.109375 C 13.113281 -14.597656 13.46875 -13.894531 13.46875 -13 C 13.46875 -11.925781 13.019531 -10.988281 12.125 -10.1875 C 11.238281 -9.394531 10.15625 -8.796875 8.875 -8.390625 Z M 5.34375 -8.4375 L 6.828125 -8.4375 C 7.710938 -8.4375 8.488281 -8.640625 9.15625 -9.046875 C 9.820312 -9.453125 10.335938 -9.988281 10.703125 -10.65625 C 11.066406 -11.332031 11.25 -12.0625 11.25 -12.84375 C 11.25 -13.726562 11.050781 -14.382812 10.65625 -14.8125 C 10.269531 -15.238281 9.660156 -15.453125 8.828125 -15.453125 C 8.171875 -15.453125 7.707031 -15.34375 7.4375 -15.125 C 7.164062 -14.914062 6.945312 -14.492188 6.78125 -13.859375 Z M 4.890625 -0.515625 C 6.796875 -0.515625 8.175781 -0.898438 9.03125 -1.671875 C 9.882812 -2.441406 10.3125 -3.578125 10.3125 -5.078125 C 10.3125 -7.066406 9.238281 -8.0625 7.09375 -8.0625 L 5.25 -8.0625 L 3.75 -2.375 C 3.613281 -1.84375 3.546875 -1.476562 3.546875 -1.28125 C 3.546875 -1.007812 3.644531 -0.8125 3.84375 -0.6875 C 4.050781 -0.570312 4.398438 -0.515625 4.890625 -0.515625 Z M 4.890625 -0.515625 "/></g></g></g><g fill="#004aad" fill-opacity="1"><g transform="translate(260.054726, 255.695135)"><g><path d="M 8.875 -11.859375 C 9.269531 -11.859375 9.585938 -11.738281 9.828125 -11.5 C 10.066406 -11.257812 10.1875 -10.953125 10.1875 -10.578125 C 10.1875 -10.128906 10.03125 -9.742188 9.71875 -9.421875 C 9.40625 -9.109375 9.039062 -8.953125 8.625 -8.953125 C 8.351562 -8.953125 8.132812 -9.023438 7.96875 -9.171875 C 7.800781 -9.316406 7.71875 -9.515625 7.71875 -9.765625 C 7.71875 -10.109375 7.804688 -10.398438 7.984375 -10.640625 C 8.171875 -10.878906 8.421875 -11.066406 8.734375 -11.203125 C 8.671875 -11.265625 8.585938 -11.296875 8.484375 -11.296875 C 7.679688 -11.296875 6.800781 -10.421875 5.84375 -8.671875 C 4.894531 -6.929688 4.003906 -4.632812 3.171875 -1.78125 L 2.71875 0 L 0.765625 0 L 3.453125 -9.625 C 3.554688 -9.957031 3.609375 -10.253906 3.609375 -10.515625 C 3.609375 -10.859375 3.453125 -11.03125 3.140625 -11.03125 C 2.816406 -11.03125 2.515625 -10.851562 2.234375 -10.5 C 1.953125 -10.144531 1.671875 -9.554688 1.390625 -8.734375 L 1.09375 -7.90625 L 0.671875 -7.90625 L 1.234375 -9.546875 C 1.773438 -11.085938 2.679688 -11.859375 3.953125 -11.859375 C 4.804688 -11.859375 5.234375 -11.421875 5.234375 -10.546875 C 5.234375 -10.128906 5.128906 -9.519531 4.921875 -8.71875 L 4.203125 -5.875 C 5.003906 -8.050781 5.757812 -9.59375 6.46875 -10.5 C 7.1875 -11.40625 7.988281 -11.859375 8.875 -11.859375 Z M 8.875 -11.859375 "/></g></g></g><g fill="#004aad" fill-opacity="1"><g transform="translate(270.737298, 255.695135)"><g><path d="M 4.21875 -15.328125 C 4.21875 -15.785156 4.382812 -16.1875 4.71875 -16.53125 C 5.0625 -16.882812 5.445312 -17.0625 5.875 -17.0625 C 6.226562 -17.0625 6.507812 -16.945312 6.71875 -16.71875 C 6.925781 -16.5 7.03125 -16.222656 7.03125 -15.890625 C 7.03125 -15.441406 6.859375 -15.046875 6.515625 -14.703125 C 6.171875 -14.359375 5.78125 -14.1875 5.34375 -14.1875 C 5.007812 -14.1875 4.738281 -14.296875 4.53125 -14.515625 C 4.320312 -14.734375 4.21875 -15.003906 4.21875 -15.328125 Z M 3.546875 -9.625 C 3.671875 -9.988281 3.734375 -10.269531 3.734375 -10.46875 C 3.734375 -10.84375 3.566406 -11.03125 3.234375 -11.03125 C 2.890625 -11.03125 2.582031 -10.847656 2.3125 -10.484375 C 2.039062 -10.128906 1.753906 -9.546875 1.453125 -8.734375 L 1.140625 -7.90625 L 0.71875 -7.90625 L 1.296875 -9.546875 C 1.597656 -10.398438 2 -11 2.5 -11.34375 C 3 -11.6875 3.53125 -11.859375 4.09375 -11.859375 C 5.070312 -11.859375 5.5625 -11.382812 5.5625 -10.4375 C 5.5625 -9.945312 5.441406 -9.375 5.203125 -8.71875 L 2.8125 -1.90625 C 2.6875 -1.550781 2.625 -1.273438 2.625 -1.078125 C 2.625 -0.703125 2.804688 -0.515625 3.171875 -0.515625 C 3.484375 -0.515625 3.773438 -0.6875 4.046875 -1.03125 C 4.316406 -1.375 4.609375 -1.96875 4.921875 -2.8125 L 5.234375 -3.640625 L 5.65625 -3.640625 L 5.078125 -2 C 4.773438 -1.175781 4.378906 -0.582031 3.890625 -0.21875 C 3.410156 0.132812 2.882812 0.3125 2.3125 0.3125 C 1.257812 0.3125 0.734375 -0.144531 0.734375 -1.0625 C 0.734375 -1.488281 0.867188 -2.078125 1.140625 -2.828125 Z M 3.546875 -9.625 "/></g></g></g><g fill="#004aad" fill-opacity="1"><g transform="translate(278.637145, 255.695135)"><g><path d="M 2.296875 -1.90625 C 2.203125 -1.59375 2.15625 -1.332031 2.15625 -1.125 C 2.15625 -0.71875 2.328125 -0.515625 2.671875 -0.515625 C 2.972656 -0.515625 3.253906 -0.6875 3.515625 -1.03125 C 3.773438 -1.375 4.054688 -1.96875 4.359375 -2.8125 L 4.640625 -3.640625 L 5.078125 -3.640625 L 4.515625 -2 C 3.992188 -0.457031 3.09375 0.3125 1.8125 0.3125 C 0.78125 0.3125 0.265625 -0.171875 0.265625 -1.140625 C 0.265625 -1.515625 0.367188 -2.078125 0.578125 -2.828125 L 4.25 -14.96875 C 4.320312 -15.238281 4.359375 -15.453125 4.359375 -15.609375 C 4.359375 -15.898438 4.238281 -16.113281 4 -16.25 C 3.769531 -16.382812 3.378906 -16.453125 2.828125 -16.453125 L 2.984375 -16.921875 C 3.773438 -16.941406 4.488281 -17.023438 5.125 -17.171875 C 5.757812 -17.328125 6.378906 -17.550781 6.984375 -17.84375 Z M 2.296875 -1.90625 "/></g></g></g><g fill="#004aad" fill-opacity="1"><g transform="translate(285.975957, 255.695135)"><g><path d="M 2.296875 -1.90625 C 2.203125 -1.59375 2.15625 -1.332031 2.15625 -1.125 C 2.15625 -0.71875 2.328125 -0.515625 2.671875 -0.515625 C 2.972656 -0.515625 3.253906 -0.6875 3.515625 -1.03125 C 3.773438 -1.375 4.054688 -1.96875 4.359375 -2.8125 L 4.640625 -3.640625 L 5.078125 -3.640625 L 4.515625 -2 C 3.992188 -0.457031 3.09375 0.3125 1.8125 0.3125 C 0.78125 0.3125 0.265625 -0.171875 0.265625 -1.140625 C 0.265625 -1.515625 0.367188 -2.078125 0.578125 -2.828125 L 4.25 -14.96875 C 4.320312 -15.238281 4.359375 -15.453125 4.359375 -15.609375 C 4.359375 -15.898438 4.238281 -16.113281 4 -16.25 C 3.769531 -16.382812 3.378906 -16.453125 2.828125 -16.453125 L 2.984375 -16.921875 C 3.773438 -16.941406 4.488281 -17.023438 5.125 -17.171875 C 5.757812 -17.328125 6.378906 -17.550781 6.984375 -17.84375 Z M 2.296875 -1.90625 "/></g></g></g><g fill="#004aad" fill-opacity="1"><g transform="translate(293.314769, 255.695135)"><g><path d="M 4.21875 -15.328125 C 4.21875 -15.785156 4.382812 -16.1875 4.71875 -16.53125 C 5.0625 -16.882812 5.445312 -17.0625 5.875 -17.0625 C 6.226562 -17.0625 6.507812 -16.945312 6.71875 -16.71875 C 6.925781 -16.5 7.03125 -16.222656 7.03125 -15.890625 C 7.03125 -15.441406 6.859375 -15.046875 6.515625 -14.703125 C 6.171875 -14.359375 5.78125 -14.1875 5.34375 -14.1875 C 5.007812 -14.1875 4.738281 -14.296875 4.53125 -14.515625 C 4.320312 -14.734375 4.21875 -15.003906 4.21875 -15.328125 Z M 3.546875 -9.625 C 3.671875 -9.988281 3.734375 -10.269531 3.734375 -10.46875 C 3.734375 -10.84375 3.566406 -11.03125 3.234375 -11.03125 C 2.890625 -11.03125 2.582031 -10.847656 2.3125 -10.484375 C 2.039062 -10.128906 1.753906 -9.546875 1.453125 -8.734375 L 1.140625 -7.90625 L 0.71875 -7.90625 L 1.296875 -9.546875 C 1.597656 -10.398438 2 -11 2.5 -11.34375 C 3 -11.6875 3.53125 -11.859375 4.09375 -11.859375 C 5.070312 -11.859375 5.5625 -11.382812 5.5625 -10.4375 C 5.5625 -9.945312 5.441406 -9.375 5.203125 -8.71875 L 2.8125 -1.90625 C 2.6875 -1.550781 2.625 -1.273438 2.625 -1.078125 C 2.625 -0.703125 2.804688 -0.515625 3.171875 -0.515625 C 3.484375 -0.515625 3.773438 -0.6875 4.046875 -1.03125 C 4.316406 -1.375 4.609375 -1.96875 4.921875 -2.8125 L 5.234375 -3.640625 L 5.65625 -3.640625 L 5.078125 -2 C 4.773438 -1.175781 4.378906 -0.582031 3.890625 -0.21875 C 3.410156 0.132812 2.882812 0.3125 2.3125 0.3125 C 1.257812 0.3125 0.734375 -0.144531 0.734375 -1.0625 C 0.734375 -1.488281 0.867188 -2.078125 1.140625 -2.828125 Z M 3.546875 -9.625 "/></g></g></g><g fill="#004aad" fill-opacity="1"><g transform="translate(301.21462, 255.695135)"><g><path d="M 10.21875 -3.65625 L 10.640625 -3.65625 L 10.078125 -2.015625 C 9.773438 -1.191406 9.390625 -0.597656 8.921875 -0.234375 C 8.460938 0.128906 7.988281 0.3125 7.5 0.3125 C 7.21875 0.3125 6.96875 0.257812 6.75 0.15625 C 6.539062 0.0507812 6.378906 -0.0859375 6.265625 -0.265625 C 6.128906 -0.492188 6.0625 -0.757812 6.0625 -1.0625 C 6.0625 -1.375 6.113281 -1.722656 6.21875 -2.109375 C 6.320312 -2.492188 6.390625 -2.738281 6.421875 -2.84375 L 6.828125 -4.46875 C 6.109375 -2.789062 5.378906 -1.570312 4.640625 -0.8125 C 3.898438 -0.0625 3.125 0.3125 2.3125 0.3125 C 1.625 0.3125 1.097656 0.0664062 0.734375 -0.421875 C 0.378906 -0.921875 0.203125 -1.582031 0.203125 -2.40625 C 0.203125 -3.613281 0.523438 -4.96875 1.171875 -6.46875 C 1.816406 -7.96875 2.65625 -9.238281 3.6875 -10.28125 C 4.71875 -11.332031 5.765625 -11.859375 6.828125 -11.859375 C 7.234375 -11.859375 7.5625 -11.707031 7.8125 -11.40625 C 8.070312 -11.101562 8.222656 -10.6875 8.265625 -10.15625 L 8.625 -11.546875 C 9.445312 -11.566406 10.132812 -11.671875 10.6875 -11.859375 L 7.875 -1.9375 C 7.863281 -1.875 7.832031 -1.753906 7.78125 -1.578125 C 7.738281 -1.410156 7.71875 -1.25 7.71875 -1.09375 C 7.71875 -0.71875 7.882812 -0.53125 8.21875 -0.53125 C 8.875 -0.53125 9.453125 -1.296875 9.953125 -2.828125 Z M 2.96875 -0.40625 C 3.382812 -0.40625 3.882812 -0.722656 4.46875 -1.359375 C 5.050781 -2.003906 5.625 -2.863281 6.1875 -3.9375 C 6.75 -5.007812 7.207031 -6.148438 7.5625 -7.359375 L 7.96875 -8.953125 C 7.988281 -9.078125 8 -9.242188 8 -9.453125 C 8 -10.066406 7.890625 -10.546875 7.671875 -10.890625 C 7.453125 -11.242188 7.148438 -11.421875 6.765625 -11.421875 C 6.117188 -11.421875 5.4375 -10.921875 4.71875 -9.921875 C 4 -8.929688 3.394531 -7.707031 2.90625 -6.25 C 2.414062 -4.789062 2.171875 -3.421875 2.171875 -2.140625 C 2.171875 -1.523438 2.238281 -1.082031 2.375 -0.8125 C 2.507812 -0.539062 2.707031 -0.40625 2.96875 -0.40625 Z M 2.96875 -0.40625 "/></g></g></g><g fill="#004aad" fill-opacity="1"><g transform="translate(314.073996, 255.695135)"><g><path d="M 11.90625 -3.640625 L 11.34375 -2 C 10.800781 -0.457031 9.894531 0.3125 8.625 0.3125 C 7.945312 0.3125 7.472656 0.09375 7.203125 -0.34375 C 7.085938 -0.519531 7.03125 -0.765625 7.03125 -1.078125 C 7.03125 -1.484375 7.15625 -2.066406 7.40625 -2.828125 L 9.546875 -9.25 C 9.691406 -9.738281 9.765625 -10.101562 9.765625 -10.34375 C 9.765625 -10.875 9.523438 -11.140625 9.046875 -11.140625 C 8.484375 -11.140625 7.835938 -10.722656 7.109375 -9.890625 C 6.378906 -9.054688 5.660156 -7.910156 4.953125 -6.453125 C 4.253906 -5.003906 3.648438 -3.398438 3.140625 -1.640625 L 2.734375 0 L 0.78125 0 L 3.484375 -9.625 C 3.585938 -10.019531 3.640625 -10.300781 3.640625 -10.46875 C 3.640625 -10.84375 3.472656 -11.03125 3.140625 -11.03125 C 2.816406 -11.03125 2.523438 -10.863281 2.265625 -10.53125 C 2.015625 -10.195312 1.734375 -9.597656 1.421875 -8.734375 L 1.125 -7.90625 L 0.703125 -7.90625 L 1.25 -9.546875 C 1.789062 -11.085938 2.679688 -11.859375 3.921875 -11.859375 C 4.398438 -11.859375 4.738281 -11.738281 4.9375 -11.5 C 5.144531 -11.269531 5.25 -10.945312 5.25 -10.53125 C 5.25 -10.125 5.144531 -9.519531 4.9375 -8.71875 L 4.15625 -5.640625 C 5.113281 -7.898438 6.03125 -9.5 6.90625 -10.4375 C 7.78125 -11.382812 8.742188 -11.859375 9.796875 -11.859375 C 11.003906 -11.859375 11.609375 -11.296875 11.609375 -10.171875 C 11.609375 -9.679688 11.492188 -9.113281 11.265625 -8.46875 L 9.09375 -1.90625 C 8.96875 -1.550781 8.90625 -1.269531 8.90625 -1.0625 C 8.90625 -0.695312 9.085938 -0.515625 9.453125 -0.515625 C 9.753906 -0.515625 10.039062 -0.679688 10.3125 -1.015625 C 10.59375 -1.359375 10.882812 -1.957031 11.1875 -2.8125 L 11.46875 -3.640625 Z M 11.90625 -3.640625 "/></g></g></g><g fill="#004aad" fill-opacity="1"><g transform="translate(328.212535, 255.695135)"><g><path d="M 7.25 -11.40625 C 6.5 -11.40625 5.753906 -11 5.015625 -10.1875 C 4.273438 -9.382812 3.671875 -8.316406 3.203125 -6.984375 C 2.734375 -5.648438 2.5 -4.25 2.5 -2.78125 C 2.5 -2.050781 2.632812 -1.507812 2.90625 -1.15625 C 3.1875 -0.800781 3.570312 -0.625 4.0625 -0.625 C 5.289062 -0.625 6.414062 -1.375 7.4375 -2.875 L 7.875 -2.6875 C 7.394531 -1.863281 6.75 -1.15625 5.9375 -0.5625 C 5.125 0.0195312 4.269531 0.3125 3.375 0.3125 C 2.457031 0.3125 1.734375 0.03125 1.203125 -0.53125 C 0.671875 -1.09375 0.40625 -1.910156 0.40625 -2.984375 C 0.40625 -4.203125 0.6875 -5.503906 1.25 -6.890625 C 1.820312 -8.285156 2.625 -9.460938 3.65625 -10.421875 C 4.6875 -11.378906 5.863281 -11.859375 7.1875 -11.859375 C 7.875 -11.859375 8.445312 -11.6875 8.90625 -11.34375 C 9.375 -11 9.609375 -10.535156 9.609375 -9.953125 C 9.609375 -9.484375 9.457031 -9.066406 9.15625 -8.703125 C 8.863281 -8.335938 8.484375 -8.15625 8.015625 -8.15625 C 7.710938 -8.15625 7.484375 -8.234375 7.328125 -8.390625 C 7.171875 -8.554688 7.09375 -8.769531 7.09375 -9.03125 C 7.09375 -9.445312 7.253906 -9.804688 7.578125 -10.109375 C 7.910156 -10.421875 8.3125 -10.617188 8.78125 -10.703125 C 8.46875 -11.171875 7.957031 -11.40625 7.25 -11.40625 Z M 7.25 -11.40625 "/></g></g></g><g fill="#004aad" fill-opacity="1"><g transform="translate(339.029758, 255.695135)"><g><path d="M 9.34375 -10.375 C 9.34375 -9.15625 8.660156 -8.085938 7.296875 -7.171875 C 5.929688 -6.265625 4.375 -5.53125 2.625 -4.96875 C 2.457031 -4.21875 2.375 -3.488281 2.375 -2.78125 C 2.375 -1.34375 2.890625 -0.625 3.921875 -0.625 C 5.210938 -0.625 6.367188 -1.375 7.390625 -2.875 L 7.75 -2.6875 C 7.269531 -1.863281 6.617188 -1.15625 5.796875 -0.5625 C 4.984375 0.0195312 4.128906 0.3125 3.234375 0.3125 C 2.304688 0.3125 1.578125 0.046875 1.046875 -0.484375 C 0.523438 -1.023438 0.265625 -1.8125 0.265625 -2.84375 C 0.265625 -3.988281 0.597656 -5.273438 1.265625 -6.703125 C 1.929688 -8.128906 2.832031 -9.34375 3.96875 -10.34375 C 5.113281 -11.351562 6.347656 -11.859375 7.671875 -11.859375 C 8.148438 -11.859375 8.546875 -11.726562 8.859375 -11.46875 C 9.179688 -11.21875 9.34375 -10.851562 9.34375 -10.375 Z M 7.1875 -11.421875 C 6.707031 -11.421875 6.171875 -11.140625 5.578125 -10.578125 C 4.984375 -10.023438 4.425781 -9.28125 3.90625 -8.34375 C 3.394531 -7.414062 3.003906 -6.429688 2.734375 -5.390625 C 4.160156 -5.878906 5.179688 -6.359375 5.796875 -6.828125 C 6.347656 -7.265625 6.773438 -7.789062 7.078125 -8.40625 C 7.390625 -9.03125 7.546875 -9.703125 7.546875 -10.421875 C 7.546875 -10.828125 7.515625 -11.09375 7.453125 -11.21875 C 7.390625 -11.351562 7.300781 -11.421875 7.1875 -11.421875 Z M 7.1875 -11.421875 "/></g></g></g><g fill="#004aad" fill-opacity="1"><g transform="translate(349.779657, 255.695135)"><g><path d="M -0.015625 -0.828125 C -0.015625 -1.273438 0.148438 -1.675781 0.484375 -2.03125 C 0.816406 -2.382812 1.203125 -2.5625 1.640625 -2.5625 C 1.984375 -2.5625 2.257812 -2.445312 2.46875 -2.21875 C 2.675781 -2 2.78125 -1.722656 2.78125 -1.390625 C 2.78125 -0.941406 2.609375 -0.546875 2.265625 -0.203125 C 1.921875 0.140625 1.53125 0.3125 1.09375 0.3125 C 0.769531 0.3125 0.503906 0.203125 0.296875 -0.015625 C 0.0859375 -0.234375 -0.015625 -0.503906 -0.015625 -0.828125 Z M -0.015625 -0.828125 "/></g></g></g></svg>